<svg xmlns="http://www.w3.org/2000/svg" width="39.911" height="39.898" viewBox="0 0 39.911 39.898"><g transform="translate(-2439.405 1255.649)"><path d="M2458.2-1255.649h2.34a3.309,3.309,0,0,0,.378.069,17.8,17.8,0,0,1,4.533.891,19.785,19.785,0,0,1,12.2,11.069,19.027,19.027,0,0,1,1.451,10.661,20.124,20.124,0,0,1-2.329,6.854,1.017,1.017,0,0,0-.091.682c.6,2.243,1.222,4.479,1.837,6.718.263.956.523,1.914.8,2.925-.2-.05-.335-.078-.468-.119-2.9-.894-5.8-1.783-8.7-2.691a.976.976,0,0,0-.871.1,19.4,19.4,0,0,1-8.422,2.675,19.146,19.146,0,0,1-11.7-2.769,19.657,19.657,0,0,1-9.44-13.706c-.137-.737-.207-1.487-.308-2.231v-2.339a2.609,2.609,0,0,0,.066-.334,19.016,19.016,0,0,1,2.745-8.669,19.718,19.718,0,0,1,13.712-9.477C2456.677-1255.479,2457.44-1255.547,2458.2-1255.649Zm17.721,36.4c-.036-.164-.052-.251-.075-.336-.51-1.864-.989-3.738-1.549-5.587a2.008,2.008,0,0,1,.228-1.771,16.884,16.884,0,0,0,2.445-9.053,16.853,16.853,0,0,0-3.841-10.642,17.2,17.2,0,0,0-16.309-6.472,16.241,16.241,0,0,0-9.082,4.216c-4.928,4.515-6.9,10.129-5.606,16.685a16.931,16.931,0,0,0,10.268,12.673,16.691,16.691,0,0,0,11.46.834,18.721,18.721,0,0,0,5.178-2.38.682.682,0,0,1,.649-.1c.7.237,1.41.445,2.116.663Z"/><path d="M2446.4-1235.711a12.878,12.878,0,0,1,12.962-12.843,12.889,12.889,0,0,1,12.739,12.872,12.835,12.835,0,0,1-12.807,12.836A12.84,12.84,0,0,1,2446.4-1235.711Zm16.406,2.34v-4.638h-6.881v4.638Zm-.389-7.012a.929.929,0,0,0,0-.153q-.079-.381-.164-.76a10.411,10.411,0,0,0-1.7-4.094c-.819-1.093-1.563-1.078-2.391,0a8.615,8.615,0,0,0-1.354,2.823c-.212.71-.369,1.437-.557,2.18Zm-6.133,9.377a13.721,13.721,0,0,0,1.094,3.665,8.108,8.108,0,0,0,1.025,1.6c.641.764,1.291.774,1.914-.01a10.533,10.533,0,0,0,1.177-1.954,12.772,12.772,0,0,0,.941-3.3Zm-2.727-7.016h-4.56a10.563,10.563,0,0,0,.005,4.644h4.555Zm15.946.012h-4.332v4.636h4.331A10.557,10.557,0,0,0,2469.5-1238.01Zm-19.631-2.378h4.016a18.162,18.162,0,0,1,1.564-5.062A10.164,10.164,0,0,0,2449.869-1240.388Zm.035,9.383c.427,1.69,3.848,4.813,5.538,5.035a17.952,17.952,0,0,1-1.56-5.035Zm18.757-9.379a10.349,10.349,0,0,0-5.294-4.942,19.941,19.941,0,0,1,1.468,4.942Zm-5.369,14.4a10.673,10.673,0,0,0,5.355-5.021h-3.822A18.364,18.364,0,0,1,2463.292-1225.988Z"/></g></svg>