<svg xmlns="http://www.w3.org/2000/svg" width="11.252" height="11.304" viewBox="0 0 11.252 11.304"><path d="M8.317,11.293a7.048,7.048,0,0,1-2.777-.979A11.463,11.463,0,0,1,2.712,8.1,11.127,11.127,0,0,1,.35,4.422,4.844,4.844,0,0,1,0,2.825,1.987,1.987,0,0,1,.552,1.3l.228-.236c.23-.238.466-.484.722-.7A1.309,1.309,0,0,1,2.362,0a1.273,1.273,0,0,1,.878.389c.481.451.979.956,1.526,1.544a1.172,1.172,0,0,1,.01,1.579c-.188.214-.392.418-.59.615l-.244.244a.175.175,0,0,1-.023.022A7.858,7.858,0,0,0,6.9,7.359l.017-.019c.059-.068.121-.139.186-.2L7.21,7.03c.173-.174.352-.353.542-.517a1.223,1.223,0,0,1,.8-.307,1.158,1.158,0,0,1,.8.324c.544.518,1.077,1.055,1.586,1.6a1.192,1.192,0,0,1,.03,1.592c-.119.144-.251.277-.379.406l-.106.108-.156.162a6.461,6.461,0,0,1-.469.459,1.926,1.926,0,0,1-1.291.452C8.483,11.3,8.4,11.3,8.317,11.293ZM2.048,1.1l-.165.161c-.208.2-.423.414-.621.631a1.352,1.352,0,0,0-.266.4A1.761,1.761,0,0,0,.978,3.306a6.354,6.354,0,0,0,.564,1.556A10.656,10.656,0,0,0,3.206,7.275,10.508,10.508,0,0,0,7.387,10.16a3.771,3.771,0,0,0,1.11.23h0a1.138,1.138,0,0,0,.9-.356c.153-.161.311-.322.464-.477l.264-.269a1.212,1.212,0,0,0,.117-.132A.327.327,0,0,0,10.23,8.7c-.031-.037-.067-.076-.116-.125L9.338,7.8l-.176-.177c-.124-.125-.253-.255-.382-.378A.317.317,0,0,0,8.3,7.233c-.034.031-.069.066-.107.1l-.2.2c-.192.191-.389.389-.585.582a.648.648,0,0,1-.459.207.691.691,0,0,1-.314-.081L6.62,8.24c-.154-.078-.313-.158-.466-.25A8.275,8.275,0,0,1,4.293,6.445,6.811,6.811,0,0,1,3.06,4.689a.678.678,0,0,1,.175-.917l.032-.031c.26-.253.529-.515.783-.781a.3.3,0,0,0,0-.468C4.027,2.46,4,2.428,3.968,2.4l-.293-.293q-.5-.5-1-1A.479.479,0,0,0,2.358.93.468.468,0,0,0,2.048,1.1Z" transform="translate(0)"/></svg>