<svg xmlns="http://www.w3.org/2000/svg" width="11" height="10.567" viewBox="0 0 11 10.567"><path d="M761.8,707.367a1.068,1.068,0,0,1,.964.6l1.1,2.228a.078.078,0,0,0,.058.041l2.457.357a1.075,1.075,0,0,1,.6,1.834l-1.779,1.734a.074.074,0,0,0-.022.066l.42,2.45a1.074,1.074,0,0,1-1.559,1.134l-2.2-1.157a.079.079,0,0,0-.071,0l-2.2,1.156a1.075,1.075,0,0,1-1.56-1.134l.42-2.448a.075.075,0,0,0-.022-.066l-1.779-1.734a1.075,1.075,0,0,1,.6-1.834l2.458-.357a.077.077,0,0,0,.057-.041l1.1-2.228A1.068,1.068,0,0,1,761.8,707.367Zm2.734,9.567a.083.083,0,0,0,.06-.03.066.066,0,0,0,.014-.059l-.42-2.449a1.074,1.074,0,0,1,.309-.951l1.779-1.735a.068.068,0,0,0,.019-.077.069.069,0,0,0-.061-.051l-2.458-.357a1.077,1.077,0,0,1-.81-.588l-1.1-2.228a.075.075,0,0,0-.134,0l-1.1,2.228a1.077,1.077,0,0,1-.808.588l-2.459.357a.075.075,0,0,0-.042.128l1.779,1.735a1.074,1.074,0,0,1,.309.952l-.42,2.448a.066.066,0,0,0,.014.059.083.083,0,0,0,.06.03.077.077,0,0,0,.036-.01l2.2-1.156a1.1,1.1,0,0,1,1,0l2.2,1.157A.075.075,0,0,0,764.53,716.934Z" transform="translate(-756.295 -707.367)"/></svg>