<svg xmlns="http://www.w3.org/2000/svg" width="10.985" height="11" viewBox="0 0 10.985 11"><g transform="translate(188.5 -267.234)"><path d="M2.495,9.937A2.526,2.526,0,0,1,.045,7.446C-.018,5.832-.011,4.213.043,2.6A2.573,2.573,0,0,1,2.168.128c.2-.047.4-.085.606-.128H7.163a1.945,1.945,0,0,0,.26.066A2.639,2.639,0,0,1,9.917,2.407a.958.958,0,0,0,.068.179V7.44a.57.57,0,0,0-.065.136A2.567,2.567,0,0,1,7.342,9.948Q6.217,10,5.087,10,3.79,10,2.495,9.937ZM2.767.962A1.679,1.679,0,0,0,.957,2.685C.881,4.257.889,5.839.967,7.412A1.648,1.648,0,0,0,2.712,9.066c1.511.047,3.027.048,4.539,0A1.746,1.746,0,0,0,9.045,7.233c.033-.728.006-1.46.007-2.189s.027-1.488-.006-2.229A1.745,1.745,0,0,0,7.228.964Q6.124.924,5.018.925,3.891.925,2.767.962ZM2.407,5A2.576,2.576,0,1,1,4.993,7.59H4.985A2.6,2.6,0,0,1,2.407,5Zm.913-.006A1.669,1.669,0,1,0,5.006,3.352H4.994A1.652,1.652,0,0,0,3.32,4.994ZM7.076,2.345a.6.6,0,0,1,.58-.611.606.606,0,0,1,.606.589.593.593,0,0,1-.585.605H7.666A.581.581,0,0,1,7.076,2.345Z" transform="translate(-188 267.734)" fill="#fff"/><path d="M5.087,10.5c-.849,0-1.729-.021-2.616-.064A3.031,3.031,0,0,1-.454,7.465c-.06-1.539-.061-3.136,0-4.882A3.073,3.073,0,0,1,2.055-.359c.14-.033.28-.061.416-.089l.2-.041L2.722-.5H7.23l.064.017.087.025a.886.886,0,0,0,.106.028,3.132,3.132,0,0,1,2.92,2.73l.011.024c.011.025.023.05.033.076l.036.089V7.56l-.055.107c-.009.018-.019.035-.029.053a3.056,3.056,0,0,1-3.036,2.727C6.625,10.482,5.858,10.5,5.087,10.5Zm-.07-9.075c-.725,0-1.477.012-2.234.037A1.19,1.19,0,0,0,1.456,2.709c-.072,1.5-.069,3.076.01,4.678a1.158,1.158,0,0,0,1.262,1.18C3.485,8.59,4.25,8.6,5,8.6S6.5,8.59,7.236,8.567A1.261,1.261,0,0,0,8.545,7.21c.022-.484.017-.985.012-1.47,0-.228,0-.464,0-.7s0-.466.005-.693c.005-.452.01-.918-.006-1.373a1.1,1.1,0,0,1-.865.452H7.62A3.078,3.078,0,0,1,4.995,8.09h-.01A3.1,3.1,0,0,1,1.907,5,3.093,3.093,0,0,1,4.978,1.936h.008a3.044,3.044,0,0,1,1.59.444c0-.009,0-.018,0-.028a1.11,1.11,0,0,1,.436-.895c-.65-.021-1.32-.032-1.994-.032ZM4.994,3.852a1.161,1.161,0,1,0-.023,2.322h.013A1.161,1.161,0,0,0,6.157,5.025,1.144,1.144,0,0,0,5.83,4.2,1.161,1.161,0,0,0,5,3.852Z" transform="translate(-188 267.734)" fill="rgba(0,0,0,0)"/></g></svg>