<svg xmlns="http://www.w3.org/2000/svg" width="12" height="7.814" viewBox="0 0 12 7.814"><g transform="translate(-201.799 -686.482)"><path d="M212.412,692.147h-.75a3.863,3.863,0,0,0-7.726,0h-.75a4.613,4.613,0,0,1,9.226,0Z" fill="#fff"/><path d="M10.4.375H0v-.75H10.4Z" transform="translate(202.599 692.147)" fill="#fff"/><path d="M12,.375H0v-.75H12Z" transform="translate(201.799 693.921)" fill="#fff"/><path d="M.375,1.129h-.75V0h.75Z" transform="translate(207.799 686.78)" fill="#fff"/><path d="M.375,1.929h-.75V0h.75Z" transform="translate(204.705 692.147)" fill="#fff"/><path d="M.375,1.929h-.75V0h.75Z" transform="translate(210.893 692.147)" fill="#fff"/><path d="M3.2.375H0v-.75H3.2Z" transform="translate(206.199 686.857)" fill="#fff"/></g></svg>