<svg xmlns="http://www.w3.org/2000/svg" width="28" height="28.138" viewBox="0 0 28 28.138"><path d="M229.119-55.335a20.418,20.418,0,0,0,8.069,8.042c.232-.258.439-.514.673-.746.536-.533,1.064-1.079,1.636-1.573a2.646,2.646,0,0,1,3.631.034q2.067,1.969,4.025,4.049a2.733,2.733,0,0,1,.063,3.631c-.376.454-.806.866-1.218,1.289-.516.528-1.009,1.083-1.568,1.561A4.767,4.767,0,0,1,240.754-38a17.442,17.442,0,0,1-6.942-2.454,28.7,28.7,0,0,1-7.12-5.586,28.108,28.108,0,0,1-5.945-9.246,12.127,12.127,0,0,1-.869-3.96,4.775,4.775,0,0,1,1.31-3.648c.789-.8,1.549-1.641,2.4-2.377a2.735,2.735,0,0,1,4,.063c1.337,1.257,2.62,2.572,3.87,3.914a2.654,2.654,0,0,1,.019,3.593c-.666.758-1.4,1.45-2.111,2.172C229.307-55.47,229.232-55.424,229.119-55.335Zm12.052,15.672a3.235,3.235,0,0,0,2.541-1.006c.608-.639,1.235-1.264,1.851-1.9a3.39,3.39,0,0,0,.326-.372,1.148,1.148,0,0,0-.046-1.544c-.1-.118-.208-.232-.316-.34q-.988-.992-1.976-1.979c-.475-.473-.943-.953-1.426-1.416a1.115,1.115,0,0,0-1.641-.043c-.1.089-.2.186-.294.282-.666.666-1.33,1.334-2,2a1.277,1.277,0,0,1-1.6.263c-.405-.205-.813-.41-1.2-.644a20.917,20.917,0,0,1-4.667-3.875,16.774,16.774,0,0,1-3.084-4.387,1.425,1.425,0,0,1,.379-1.974c.7-.683,1.407-1.366,2.082-2.075a1.085,1.085,0,0,0,.022-1.617c-.075-.089-.154-.176-.236-.258q-1.647-1.65-3.294-3.3a1.251,1.251,0,0,0-2.041-.014c-.678.668-1.368,1.325-2.01,2.027a3.784,3.784,0,0,0-.741,1.129,4.783,4.783,0,0,0-.06,2.756,16.7,16.7,0,0,0,1.462,4.037A27.613,27.613,0,0,0,227.48-47.7a26.939,26.939,0,0,0,10.769,7.432A9.832,9.832,0,0,0,241.171-39.663Z" transform="translate(-219.875 66.111)" fill="#fff"/></svg>