<svg xmlns="http://www.w3.org/2000/svg" width="10" height="10.012" viewBox="0 0 10 10.012"><g transform="translate(-238.178 -708.723)"><path d="M1.328.75a.579.579,0,0,0-.578.578v6.6a.579.579,0,0,0,.578.578H8.672a.579.579,0,0,0,.578-.578v-6.6A.579.579,0,0,0,8.672.75H1.328m0-.75H8.672A1.328,1.328,0,0,1,10,1.328v6.6A1.328,1.328,0,0,1,8.672,9.259H1.328A1.328,1.328,0,0,1,0,7.931v-6.6A1.328,1.328,0,0,1,1.328,0Z" transform="translate(238.178 709.475)"/><path d="M8.914.375H0v-.75H8.914Z" transform="translate(238.727 712.89)"/><path d="M.375,2.36h-.75V0h.75Z" transform="translate(240.678 708.723)"/><path d="M.375,2.36h-.75V0h.75Z" transform="translate(245.678 708.723)"/></g></svg>