<svg xmlns="http://www.w3.org/2000/svg" width="17.087" height="11.752" viewBox="0 0 17.087 11.752"><g transform="translate(211.982 -267.5)"><path d="M7.035,8.491c-.279.21-.538.436-.823.619A4.063,4.063,0,0,1,.862,3.163a.17.17,0,0,0,.013-.235C.621,2.536.376,2.14.127,1.743.1,1.7.077,1.659.041,1.6c.068,0,.119-.008.171-.008,1.02,0,2.041,0,3.061,0a.313.313,0,0,0,.19-.059A6.15,6.15,0,0,1,6.3.152a6.61,6.61,0,0,1,4.781.755c.285.165.532.394.8.585a.446.446,0,0,0,.236.092c1.036.007,2.07,0,3.1,0h.2c-.042.073-.068.12-.1.165-.26.417-.521.835-.787,1.248a.146.146,0,0,0,.009.2,3.918,3.918,0,0,1,.814,2.781,3.958,3.958,0,0,1-1.837,3.083,3.908,3.908,0,0,1-2.654.636A3.976,3.976,0,0,1,8.6,8.687c-.078-.069-.153-.144-.241-.226L7.692,10ZM8.142,5.654a3.169,3.169,0,1,0,3.181-3.163H11.3A3.177,3.177,0,0,0,8.142,5.654ZM.9,5.648A3.168,3.168,0,1,0,4.072,2.491h0A3.168,3.168,0,0,0,.9,5.648ZM4.849,1.659A4.141,4.141,0,0,1,7.7,3.8a4.078,4.078,0,0,1,2.878-2.142,5.551,5.551,0,0,0-2.86-.75A5.512,5.512,0,0,0,4.849,1.659ZM11.31,7.8a2.138,2.138,0,1,1,.007,0ZM10.072,5.632a1.24,1.24,0,1,0,2.48.042,1.239,1.239,0,0,0-1.218-1.256H11.3A1.248,1.248,0,0,0,10.072,5.632Zm-8.143.016A2.142,2.142,0,1,1,4.07,7.8,2.143,2.143,0,0,1,1.928,5.648Zm.9-.013A1.239,1.239,0,1,0,4.089,4.419H4.057A1.241,1.241,0,0,0,2.833,5.635Zm8.029.029a.472.472,0,1,1,.945-.009.47.47,0,0,1-.467.469h0A.472.472,0,0,1,10.862,5.665Zm-6.794.46A.47.47,0,0,1,3.6,5.656a.472.472,0,1,1,.472.469Z" transform="translate(-211.183 268)" fill="#fff"/><path d="M7.692,11.252,6.834,9.281c-.113.086-.229.17-.352.249a4.446,4.446,0,0,1-2.4.694,4.558,4.558,0,0,1-3.74-7.2c-.158-.246-.314-.5-.466-.74L-.3,2.009c-.031-.05-.058-.1-.095-.162L-.8,1.132.019,1.1l.062,0c.041,0,.084,0,.131,0h1.53q.734,0,1.467,0A6.673,6.673,0,0,1,6.2-.338,7.9,7.9,0,0,1,7.769-.5a7.023,7.023,0,0,1,3.567.974,4.885,4.885,0,0,1,.565.4c.095.075.184.145.275.209h0c.592,0,1.175,0,1.62,0h2.493l-.461.8c-.026.046-.049.086-.075.127L15.7,2.1c-.2.323-.409.656-.619.984a4.385,4.385,0,0,1,.78,2.941,4.437,4.437,0,0,1-2.058,3.456,4.361,4.361,0,0,1-2.459.746,4.936,4.936,0,0,1-.525-.029,4.446,4.446,0,0,1-2.275-.908ZM7.24,7.709l.452,1.038.494-1.134.061.057A3.639,3.639,0,0,1,7.69,6.249a3.668,3.668,0,0,1-.748,1.685ZM11.3,2.991a2.668,2.668,0,0,0,.009,5.336h.018a2.668,2.668,0,0,0,0-5.336Zm-7.229,0a2.668,2.668,0,1,0,2.67,2.672A2.667,2.667,0,0,0,4.072,2.991l0-.5Zm8.054-.907a3.693,3.693,0,0,1,1.893,1.1.659.659,0,0,1,.105-.452c.138-.214.275-.43.41-.646H13.8C13.337,2.088,12.731,2.088,12.122,2.084Zm-11.189,0c.119.19.24.381.362.567a.682.682,0,0,1,.114.483A3.669,3.669,0,0,1,3.24,2.086q-.746,0-1.5,0Zm5.259-.474a4.534,4.534,0,0,1,1.5,1.263A4.543,4.543,0,0,1,8.6,1.985a4.429,4.429,0,0,1,.6-.379,5.638,5.638,0,0,0-3.011.008ZM11.317,8.3h-.009a2.651,2.651,0,0,1-2.64-2.64,2.649,2.649,0,0,1,2.645-2.646h.007a2.643,2.643,0,0,1,0,5.285ZM4.07,8.3A2.644,2.644,0,1,1,6.713,5.667,2.648,2.648,0,0,1,4.07,8.3Z" transform="translate(-211.183 268)" fill="rgba(0,0,0,0)"/></g></svg>