<svg xmlns="http://www.w3.org/2000/svg" width="10" height="11.491" viewBox="0 0 10 11.491"><g transform="translate(-580.106 -707.135)"><path d="M585.039,717.626a10.064,10.064,0,0,0,2.206-.209,3.571,3.571,0,0,0,1.384-.568,1.019,1.019,0,0,0,.287-1.453,2.574,2.574,0,0,0-1.088-.928,5.6,5.6,0,0,0-2.208-.571c-.187-.013-.373-.019-.553-.019a6,6,0,0,0-2.512.508,2.791,2.791,0,0,0-1.212.932,1.041,1.041,0,0,0,.278,1.563,3.175,3.175,0,0,0,.869.408,8.6,8.6,0,0,0,2.548.339m0,1a9.764,9.764,0,0,1-2.846-.385,4.161,4.161,0,0,1-1.14-.541,2.032,2.032,0,0,1-.526-2.955,3.8,3.8,0,0,1,1.623-1.272,7.3,7.3,0,0,1,3.541-.574,6.62,6.62,0,0,1,2.6.678,3.577,3.577,0,0,1,1.487,1.3,2.01,2.01,0,0,1-.547,2.78,4.59,4.59,0,0,1-1.757.738A11.135,11.135,0,0,1,585.036,718.626Z"/><path d="M585.107,710.86a1.362,1.362,0,1,0,0-2.725,1.362,1.362,0,0,0,0,2.725h0m0,1a2.362,2.362,0,0,1,0-4.725h0a2.362,2.362,0,0,1,0,4.725Z"/></g></svg>