<svg xmlns="http://www.w3.org/2000/svg" width="80" height="120" viewBox="0 0 80 120"><g transform="translate(-3862.768 -2499.657)"><path d="M697.957,1064.986a32.3,32.3,0,0,0,32.261-32.263V984.986H705.1v2.62h22.5v32.387a32.334,32.334,0,0,0-26.575-19.385,4.636,4.636,0,0,0-1.757-7.932v-5.071h3.651v-2.62h-3.651v-3.647h-2.62v3.647H693v2.62h3.651v5.071a4.636,4.636,0,0,0-1.757,7.932,32.336,32.336,0,0,0-26.575,19.385V987.607h22.5v-2.62H665.694v47.737A32.3,32.3,0,0,0,697.957,1064.986Zm0-61.9c3.612,0,7.081,2.963,9.77,8.341,2.681,5.36,4.219,12.416,4.379,19.99h-28.3c.16-7.574,1.7-14.63,4.379-19.99C690.875,1006.046,694.346,1003.083,697.957,1003.083Zm-14.166,37.03v-6.078h28.331v6.087a25.193,25.193,0,0,0,2.62.744v-6.831h12.825a29.464,29.464,0,0,1-5.109,15.352v-6.394h-1.309a27.074,27.074,0,0,1-10.518-1.766,40.217,40.217,0,0,0-25.38,0,27.094,27.094,0,0,1-10.509,1.765h-1.309v6.363a29.441,29.441,0,0,1-5.087-15.321H681.17v6.824A25.086,25.086,0,0,0,683.791,1040.113Zm36.047,6.8H676.053V1045.6a28.88,28.88,0,0,0,10.059-1.894,37.626,37.626,0,0,1,23.659,0,28.884,28.884,0,0,0,10.067,1.9Zm-11.247,13.481q-.673.26-1.365.488v-5.807h1.365Zm-3.985,1.221q-.676.157-1.365.281v-6.821h1.365Zm-3.985.632c-.452.041-.906.07-1.365.09v-7.262h1.365Zm-3.985.09q-.686-.029-1.365-.092v-7.171h1.365Zm-3.985-.446c-.457-.083-.913-.176-1.363-.281v-6.536h1.363Zm-3.985-1.017c-.459-.152-.914-.315-1.363-.488v-5.311h1.363Zm22.547-1.641v-6.779H684.679v6.767a29.81,29.81,0,0,1-8.625-6.545v-3.143h43.785v3.166A29.819,29.819,0,0,1,711.211,1059.231Zm16.356-27.817H714.726c-.162-7.977-1.8-15.45-4.655-21.162a23.739,23.739,0,0,0-4.215-6.1A29.7,29.7,0,0,1,727.567,1031.414Zm-37.509-27.261a23.7,23.7,0,0,0-4.217,6.1c-2.856,5.713-4.493,13.185-4.655,21.162H668.346A29.7,29.7,0,0,1,690.058,1004.154Zm-6.031-5.714-3.182-.384,2.522,1.977-1.853,1.853-1.977-2.522.384,3.182H677.3l.385-3.182-1.979,2.522-1.853-1.853,2.524-1.977-3.184.384v-2.62l3.184.385-2.524-1.979,1.853-1.853,1.979,2.524-.385-3.184h2.62l-.384,3.184,1.977-2.524,1.853,1.853-2.522,1.979,3.182-.385Zm27.858-2.62,3.182.385-2.522-1.979,1.853-1.853,1.979,2.524-.385-3.184h2.62l-.385,3.184,1.979-2.524,1.853,1.853-2.522,1.979,3.182-.385v2.62l-3.182-.384,2.522,1.977-1.853,1.853-1.979-2.522.385,3.182h-2.62l.385-3.182-1.979,2.522-1.853-1.853,2.522-1.977-3.182.384Zm-53.928-18.57v55.476a40,40,0,1,0,80,0V977.249Zm77.38,55.476a37.38,37.38,0,1,1-74.759,0V979.87h74.759ZM672.963,964.18a4.166,4.166,0,1,1,4.167,4.165A4.166,4.166,0,0,1,672.963,964.18Zm41.656,0a4.166,4.166,0,1,1,4.165,4.165A4.165,4.165,0,0,1,714.618,964.18Zm-29.159,0a5.207,5.207,0,1,1,5.208,5.206A5.207,5.207,0,0,1,685.459,964.18Zm14.58,0a5.207,5.207,0,1,1,5.207,5.206A5.207,5.207,0,0,1,700.039,964.18Zm-5.207-8.332a3.124,3.124,0,1,1,3.125,3.125A3.124,3.124,0,0,1,694.832,955.848Zm-17.7,16.158h41.654v2.622H677.129Z" transform="translate(3204.811 1546.932)" fill="#983d3d"/></g></svg>