<svg xmlns="http://www.w3.org/2000/svg" width="36.206" height="54.308" viewBox="0 0 36.206 54.308"><path d="M683,869.137a14.618,14.618,0,0,0,14.6-14.6v-21.6H686.233v1.186h10.182v14.656A14.635,14.635,0,0,0,684.388,840a2.1,2.1,0,0,0-.795-3.59v-2.294h1.652v-1.186h-1.652v-1.651h-1.186v1.651h-1.652v1.186h1.652v2.294a2.1,2.1,0,0,0-.795,3.59,14.635,14.635,0,0,0-12.027,8.772V834.118h10.182v-1.186H668.4v21.6A14.618,14.618,0,0,0,683,869.137Zm0-28.015c1.634,0,3.205,1.34,4.422,3.775a21.7,21.7,0,0,1,1.982,9.046H676.6a21.7,21.7,0,0,1,1.982-9.046C679.795,842.462,681.366,841.122,683,841.122Zm-6.411,16.758v-2.751h12.822v2.755a11.185,11.185,0,0,0,1.186.336v-3.091h5.8a13.325,13.325,0,0,1-2.312,6.948v-2.893H693.5a12.258,12.258,0,0,1-4.759-.8,18.22,18.22,0,0,0-11.487,0,12.232,12.232,0,0,1-4.756.8H671.9v2.879a13.333,13.333,0,0,1-2.3-6.934h5.8v3.089A11.439,11.439,0,0,0,676.589,857.88Zm16.314,3.077H673.087v-.595a13.067,13.067,0,0,0,4.553-.857,17.026,17.026,0,0,1,10.707,0,13.044,13.044,0,0,0,4.556.858Zm-5.09,6.1c-.2.078-.41.152-.618.22V864.65h.618Zm-1.8.553q-.306.07-.617.126V864.65h.617Zm-1.8.285c-.205.019-.411.032-.618.041V864.65h.618Zm-1.8.041q-.31-.014-.618-.042V864.65h.618Zm-1.8-.2q-.311-.055-.617-.127V864.65h.617Zm-1.8-.46q-.312-.1-.618-.221v-2.4h.618Zm10.2-.743v-3.068H676.991v3.064a13.513,13.513,0,0,1-3.9-2.963v-1.422H692.9v1.433A13.472,13.472,0,0,1,689,866.532Zm7.4-12.589h-5.812a22.913,22.913,0,0,0-2.106-9.577,10.748,10.748,0,0,0-1.908-2.76A13.441,13.441,0,0,1,696.4,853.943Zm-16.976-12.337a10.724,10.724,0,0,0-1.908,2.76,22.929,22.929,0,0,0-2.107,9.577H669.6A13.441,13.441,0,0,1,679.425,841.606ZM676.7,839.02l-1.44-.174,1.142.9-.839.839-.9-1.142.174,1.441h-1.186l.174-1.441-.895,1.142-.839-.839,1.142-.9-1.44.174v-1.186l1.44.174-1.142-.9.839-.838.895,1.141-.174-1.44h1.186l-.174,1.44.9-1.141.839.838-1.142.9,1.44-.174Zm12.607-1.186,1.441.174-1.142-.9.839-.838.9,1.141-.174-1.44h1.186l-.174,1.44.895-1.141.839.838-1.142.9,1.44-.174v1.186l-1.44-.174,1.142.9-.839.839-.895-1.142.174,1.441h-1.186l.174-1.441-.9,1.142-.839-.839,1.142-.9-1.441.174Zm-24.406-8.4v25.106a18.1,18.1,0,0,0,36.206,0V829.43Zm35.02,25.106a16.917,16.917,0,0,1-33.834,0v-23.92h33.834Zm-28.228-31.021a1.885,1.885,0,1,1,1.885,1.885A1.885,1.885,0,0,1,671.689,823.515Zm18.852,0a1.885,1.885,0,1,1,1.885,1.885A1.885,1.885,0,0,1,690.541,823.515Zm-13.2,0a2.357,2.357,0,1,1,2.357,2.357A2.356,2.356,0,0,1,677.344,823.515Zm6.6,0a2.357,2.357,0,1,1,2.357,2.357A2.357,2.357,0,0,1,683.942,823.515Zm-2.356-3.77A1.414,1.414,0,1,1,683,821.159,1.414,1.414,0,0,1,681.586,819.745Zm-8.012,7.313h18.852v1.186H673.574Z" transform="translate(-664.897 -818.331)" fill="#fff"/></svg>