<svg xmlns="http://www.w3.org/2000/svg" width="1114.36" height="501.853" viewBox="0 0 1114.36 501.853"><g transform="translate(1229.86 -3.5)"><path d="M1029.909-493.659a9.822,9.822,0,0,0,9.811-9.811v-14.519h-7.639v.8h6.842v9.85a9.833,9.833,0,0,0-8.082-5.9,1.408,1.408,0,0,0,.479-1.058,1.412,1.412,0,0,0-1.013-1.354v-1.542h1.11v-.8h-1.11V-519.1h-.8v1.109h-1.11v.8h1.11v1.542a1.411,1.411,0,0,0-1.014,1.354,1.407,1.407,0,0,0,.48,1.058,9.834,9.834,0,0,0-8.082,5.9v-9.85h6.842v-.8H1020.1v14.519A9.822,9.822,0,0,0,1029.909-493.659Zm0-18.826c1.1,0,2.153.9,2.972,2.537a14.583,14.583,0,0,1,1.331,6.08h-8.606a14.575,14.575,0,0,1,1.332-6.08C1027.755-511.584,1028.811-512.485,1029.909-512.485Zm-4.308,11.262v-1.849h8.616v1.851a7.95,7.95,0,0,0,.8.226v-2.077h3.9a8.967,8.967,0,0,1-1.554,4.668v-1.944h-.4a8.242,8.242,0,0,1-3.2-.537,9.972,9.972,0,0,0-3.858-.625,9.985,9.985,0,0,0-3.861.625,8.237,8.237,0,0,1-3.2.537h-.4v1.935a8.958,8.958,0,0,1-1.547-4.659h3.9V-501A7.769,7.769,0,0,0,1025.6-501.223Zm10.963,2.067h-13.316v-.4a8.784,8.784,0,0,0,3.06-.576,9.3,9.3,0,0,1,3.6-.581,9.28,9.28,0,0,1,3.6.581,8.784,8.784,0,0,0,3.062.576Zm-3.421,4.1q-.206.079-.415.149v-1.766h.415Zm-1.212.372q-.206.047-.415.085v-2.074h.415Zm-1.212.192q-.206.018-.415.028v-2.209h.415Zm-1.212.027q-.209-.009-.415-.028v-2.181h.415Zm-1.212-.135q-.209-.038-.415-.085v-1.988h.415Zm-1.212-.309q-.21-.07-.415-.149v-1.615h.415Zm6.858-.5v-2.062h-8.069v2.058a9.056,9.056,0,0,1-2.624-1.99v-.956h13.316v.963A9.076,9.076,0,0,1,1033.941-495.409Zm4.974-8.46h-3.906a15.388,15.388,0,0,0-1.416-6.436,7.2,7.2,0,0,0-1.282-1.855A9.034,9.034,0,0,1,1038.915-503.869Zm-11.408-8.291a7.212,7.212,0,0,0-1.282,1.855,15.39,15.39,0,0,0-1.416,6.436H1020.9A9.033,9.033,0,0,1,1027.507-512.16Zm-1.834-1.737-.968-.117.767.6-.563.563-.6-.767.117.968h-.8l.117-.968-.6.767-.564-.563.768-.6-.968.117v-.8l.968.117-.768-.6.564-.564.6.767-.117-.968h.8l-.117.968.6-.767.563.564-.767.6.968-.117Zm8.472-.8.968.117-.767-.6.563-.564.6.767-.118-.968h.8l-.117.968.6-.767.564.564-.767.6.968-.117v.8l-.968-.117.767.6-.564.563-.6-.767.117.968h-.8l.118-.968-.6.767-.563-.563.767-.6-.968.117Zm-16.4-5.648v16.872a12.179,12.179,0,0,0,12.165,12.165,12.179,12.179,0,0,0,12.164-12.165v-16.872Zm23.533,16.872a11.381,11.381,0,0,1-11.367,11.368,11.381,11.381,0,0,1-11.368-11.368v-16.075h22.736Zm-18.969-20.846a1.267,1.267,0,0,1,1.267-1.267,1.267,1.267,0,0,1,1.267,1.267,1.267,1.267,0,0,1-1.267,1.267A1.267,1.267,0,0,1,1022.308-524.317Zm12.668,0a1.267,1.267,0,0,1,1.267-1.267,1.267,1.267,0,0,1,1.267,1.267,1.267,1.267,0,0,1-1.267,1.267A1.267,1.267,0,0,1,1034.976-524.317Zm-8.868,0a1.584,1.584,0,0,1,1.583-1.584,1.584,1.584,0,0,1,1.584,1.584,1.584,1.584,0,0,1-1.584,1.583A1.583,1.583,0,0,1,1026.108-524.317Zm4.434,0a1.584,1.584,0,0,1,1.584-1.584,1.583,1.583,0,0,1,1.583,1.584,1.583,1.583,0,0,1-1.583,1.583A1.584,1.584,0,0,1,1030.542-524.317Zm-1.583-2.534a.95.95,0,0,1,.95-.95.951.951,0,0,1,.95.95.951.951,0,0,1-.95.95A.95.95,0,0,1,1028.959-526.851Zm-5.384,4.914h12.668v.8h-12.668Z" transform="translate(-1205.909 531.801)" fill="#fff"/><path d="M1029.909-490.805a12.68,12.68,0,0,1-12.665-12.665v-17.372h5.831v-1.594h3.72a2.086,2.086,0,0,1-1.187-1.88,2.086,2.086,0,0,1,2.083-2.084,2.071,2.071,0,0,1,.932.22,1.442,1.442,0,0,1-.164-.67,1.452,1.452,0,0,1,1.45-1.45,1.452,1.452,0,0,1,1.45,1.45,1.442,1.442,0,0,1-.164.67,2.072,2.072,0,0,1,.931-.22,2.086,2.086,0,0,1,2.083,2.084,2.086,2.086,0,0,1-1.187,1.88h3.72v1.594h5.831v17.372A12.679,12.679,0,0,1,1029.909-490.805Zm-10.868-28.24v15.575a10.881,10.881,0,0,0,10.868,10.868,10.88,10.88,0,0,0,10.867-10.868v-15.575h-9.969v.556h9.413v15.019a10.323,10.323,0,0,1-10.311,10.311,10.323,10.323,0,0,1-10.312-10.311v-15.019h9.413v-.556Zm15.4,21.186v1.594a8.54,8.54,0,0,0,1.624-1.329v-.266Zm-10.693.259a8.521,8.521,0,0,0,1.624,1.331v-1.591h-1.624Zm2.714-2.056h6.886l-.007,0a8.853,8.853,0,0,0-3.435-.554,8.863,8.863,0,0,0-3.434.553Zm9.052-1.281a10.147,10.147,0,0,0,1.449.09h.9v.419a8.481,8.481,0,0,0,.515-2.143h-2.862Zm-14.072-1.634a8.473,8.473,0,0,0,.509,2.127v-.4h.9a10.093,10.093,0,0,0,1.455-.091v-1.633Zm8.464.562a10.364,10.364,0,0,1,3.811.579v-1.142H1026.1v1.139A10.381,10.381,0,0,1,1029.906-502.01Zm5.587-2.359h2.884a8.431,8.431,0,0,0-1.836-4.436,8.518,8.518,0,0,0-2.793-2.267q.152.261.293.544A15.638,15.638,0,0,1,1035.493-504.369Zm-9.369,0h7.571a13.768,13.768,0,0,0-1.261-5.356c-.729-1.458-1.626-2.26-2.524-2.26s-1.8.8-2.524,2.26A13.759,13.759,0,0,0,1026.124-504.369Zm-4.682,0h2.883a15.639,15.639,0,0,1,1.453-6.159q.141-.283.293-.544a8.516,8.516,0,0,0-2.793,2.267A8.432,8.432,0,0,0,1021.442-504.369Zm-.048-12.323v7.408a10.332,10.332,0,0,1,2.946-2.865h-1.111l-.04.051-.051-.051h-.074l.008-.066-1.128-1.127-.065.008v-.073l-.052-.052.052-.041v-1.594l-.052-.041.052-.052v-.073l.065.008,1.128-1.128-.008-.065h.073l.052-.052.04.052h1.594l.041-.052.052.052h.073l-.008.065,1.127,1.128.066-.008v.074l.051.051-.051.04v1.595l.052.04-.052.052v.073l-.065-.008-.5.5a10.259,10.259,0,0,1,2.508-.782,1.9,1.9,0,0,1-.122-.669,1.924,1.924,0,0,1,1.014-1.687v-.71Zm14.084,4.543a10.329,10.329,0,0,1,2.945,2.864v-7.408h-7.616v.71a1.924,1.924,0,0,1,1.013,1.687,1.9,1.9,0,0,1-.122.669,10.263,10.263,0,0,1,2.507.781l-.5-.5-.066.008v-.073l-.051-.051.051-.04v-1.595l-.051-.04.051-.051v-.074l.066.008,1.126-1.128-.008-.065h.073l.052-.052.041.052h1.594l.04-.052.052.052h.073l-.008.065,1.128,1.128.065-.008v.073l.052.052-.052.04v1.594l.052.041-.052.052v.073l-.065-.008-1.128,1.127.008.066h-.074l-.051.051-.04-.051Zm-5.569-3.1-.258.076a.916.916,0,0,0-.655.874.912.912,0,0,0,.31.683l.6.531.6-.531a.913.913,0,0,0,.31-.683.917.917,0,0,0-.654-.874Zm-1.321-7.191h2.641a2.086,2.086,0,0,1-1.187-1.88,2.072,2.072,0,0,1,.36-1.17,1.444,1.444,0,0,1-.493.086,1.444,1.444,0,0,1-.495-.087,2.072,2.072,0,0,1,.361,1.171A2.086,2.086,0,0,1,1028.589-522.436Zm3.538-2.964a1.085,1.085,0,0,0-1.084,1.084,1.085,1.085,0,0,0,1.084,1.083,1.084,1.084,0,0,0,1.083-1.083A1.085,1.085,0,0,0,1032.126-525.4Zm-4.435,0a1.085,1.085,0,0,0-1.083,1.084,1.085,1.085,0,0,0,1.083,1.083,1.085,1.085,0,0,0,1.084-1.083A1.085,1.085,0,0,0,1027.692-525.4Zm2.218-1.9a.451.451,0,0,0-.45.45.451.451,0,0,0,.45.45.451.451,0,0,0,.45-.45A.451.451,0,0,0,1029.909-527.3Zm6.333,4.751a1.769,1.769,0,0,1-1.767-1.767,1.769,1.769,0,0,1,1.767-1.767,1.769,1.769,0,0,1,1.767,1.767A1.769,1.769,0,0,1,1036.243-522.55Zm0-2.534a.768.768,0,0,0-.767.767.768.768,0,0,0,.767.767.768.768,0,0,0,.767-.767A.768.768,0,0,0,1036.243-525.084Zm-12.668,2.534a1.769,1.769,0,0,1-1.767-1.767,1.769,1.769,0,0,1,1.767-1.767,1.769,1.769,0,0,1,1.767,1.767A1.769,1.769,0,0,1,1023.575-522.55Zm0-2.534a.768.768,0,0,0-.767.767.768.768,0,0,0,.767.767.768.768,0,0,0,.767-.767A.768.768,0,0,0,1023.575-525.084Z" transform="translate(-1205.909 531.801)" fill="rgba(0,0,0,0)"/><path d="M1102.163-439.793a.382.382,0,0,0,.009-.079c0-.107-.071-.114-.136-.142v-.024h.485l.691,1.4.718-1.4h.489v.024c-.1.034-.157.067-.128.214l.23,1.2c.04.214.052.261.2.312v.021h-.527v-.021c.085-.012.118-.034.118-.1a.709.709,0,0,0-.016-.116l-.281-1.367-.853,1.628h-.026l-.8-1.609-.29,1.35a.382.382,0,0,0-.01.085c0,.088.048.11.135.129v.021h-.458v-.021c.064-.024.126-.026.181-.278Z" transform="translate(-1233.45 503.015)" fill="#fff"/><path d="M1102.144-441.357l.408.819h.28l.39.786.4-.786h.171l.424-.809.166.809h.533v.88l-.086.03.175.909.211.073v.876h-1.527v-.414l-.23.438h-.15l-.109.212-.1-.212h-.274l-.156-.314v.29h-1.458v-.866l.2-.076.208-.939-.083-.036v-.851h.432Z" transform="translate(-1233.45 503.015)" fill="rgba(0,0,0,0)"/><path d="M1107.152-439.929v.68h.76a.21.21,0,0,0,.226-.188h.026l-.04.485h-.028c-.012-.088-.055-.176-.159-.176h-.784v.609c0,.083.048.121.133.121h.906a.419.419,0,0,0,.37-.252h.024l-.093.368h-1.778v-.021c.116-.036.173-.065.173-.212v-1.3c0-.154-.057-.18-.173-.214v-.024h1.576l.078,0a.194.194,0,0,0,.109-.026h.029l-.043.369h-.022c-.007-.072-.031-.224-.19-.224Z" transform="translate(-1235.091 503.027)" fill="#fff"/><path d="M1108.329-440.574h.74l-.159,1.369h-.262l0,.055h.585l-.345,1.368h-2.668v-.888l.173-.054v-.876l-.173-.05v-.9h2.077Z" transform="translate(-1235.091 503.027)" fill="rgba(0,0,0,0)"/><path d="M1111.007-439.218l.7.73a.6.6,0,0,0,.308.2v.021h-.642v-.021c.046-.012.1-.026.1-.065a.12.12,0,0,0-.045-.076l-.573-.6-.634.592c-.045.04-.062.067-.062.085,0,.036.064.043.114.06v.021h-.537v-.021a.68.68,0,0,0,.338-.2l.684-.637-.715-.753a.47.47,0,0,0-.238-.133v-.024h.6v.024c-.057.009-.121.009-.06.1l.57.6.569-.518c.071-.067.1-.107.1-.133s-.036-.04-.1-.045v-.024h.47v.024a.532.532,0,0,0-.243.14Z" transform="translate(-1236.083 503.015)" fill="#fff"/><path d="M1109.307-440.538h1.6v.485l.035.036.049-.045v-.477h1.47v.92l-.373.087-.038.031-.33.3.347.361a.349.349,0,0,0,.062.057l.01,0,.376.1v.909h-1.642v-.517l-.037-.039-.063.059v.5h-1.537v-.912l.38-.094c.023-.006.043-.011.116-.079l.317-.295-.359-.378-.384-.084Z" transform="translate(-1236.083 503.015)" fill="rgba(0,0,0,0)"/><path d="M960.761-439.826c.608,0,1.191.317,1.191.906a.884.884,0,0,1-.526.792l.354.323a.768.768,0,0,0,.331.171v.024h-.488l-.452-.419a1.7,1.7,0,0,1-.444.06c-.606,0-1.186-.333-1.186-.9C959.541-439.467,960.133-439.826,960.761-439.826Zm0,1.74a.808.808,0,0,0,.886-.784.859.859,0,0,0-.925-.837.8.8,0,0,0-.877.787A.848.848,0,0,0,960.761-438.086Z" transform="translate(-1186.818 502.945)" fill="#fff"/><path d="M960.761-440.326a1.516,1.516,0,0,1,1.691,1.406,1.309,1.309,0,0,1-.258.789.181.181,0,0,0,.029.009l.389.089v.923h-1.184l-.409-.379a2.187,2.187,0,0,1-.291.02,1.529,1.529,0,0,1-1.686-1.4A1.569,1.569,0,0,1,960.761-440.326Zm0,1.74c.065,0,.386-.014.386-.284,0-.233-.213-.337-.425-.337-.088,0-.377.021-.377.287C960.345-438.674,960.569-438.586,960.761-438.586Z" transform="translate(-1186.818 502.945)" fill="rgba(0,0,0,0)"/><path d="M963.813-439.521c0-.155-.06-.181-.173-.214v-.024h1.146c.5,0,.741.2.741.471,0,.3-.261.47-.779.47l.7.64a.719.719,0,0,0,.278.166v.021H965.3l-.989-.915v-.028h.411c.335,0,.492-.153.492-.354s-.157-.349-.492-.349h-.516c-.085,0-.144,0-.144.1v1.31c0,.147.057.175.173.211v.021h-.6v-.021c.114-.036.173-.064.173-.211Z" transform="translate(-1188.163 502.923)" fill="#fff"/><path d="M963.14-440.259h1.646c.857,0,1.241.488,1.241.971a.919.919,0,0,1-.309.681l.059.054a.27.27,0,0,0,.1.065l.35.11v.888h-1.117l-.369-.342v.342h-1.6v-.889l.173-.054v-.875l-.173-.05Z" transform="translate(-1188.163 502.923)" fill="rgba(0,0,0,0)"/><path d="M968.427-439.826c.609,0,1.191.317,1.191.906s-.6.951-1.224.951c-.606,0-1.186-.333-1.186-.9C967.208-439.467,967.8-439.826,968.427-439.826Zm0,1.74a.808.808,0,0,0,.887-.784.859.859,0,0,0-.925-.837.8.8,0,0,0-.877.787A.848.848,0,0,0,968.427-438.086Z" transform="translate(-1189.333 502.945)" fill="#fff"/><path d="M968.427-440.326a1.516,1.516,0,0,1,1.691,1.406,1.57,1.57,0,0,1-1.724,1.451,1.529,1.529,0,0,1-1.686-1.4A1.568,1.568,0,0,1,968.427-440.326Zm0,1.74c.065,0,.387-.014.387-.284,0-.233-.213-.337-.425-.337-.088,0-.377.021-.377.287C968.012-438.674,968.236-438.586,968.427-438.586Z" transform="translate(-1189.333 502.945)" fill="rgba(0,0,0,0)"/><path d="M947.324-457.849c0-.724-.261-.847-.763-1v-.112H951.6c2.184,0,3.26.959,3.26,2.208,0,1.394-1.149,2.208-3.427,2.208l3.072,3a3.139,3.139,0,0,0,1.223.78v.1h-1.85l-4.347-4.292v-.134h1.808c1.474,0,2.163-.714,2.163-1.661s-.689-1.639-2.163-1.639h-2.267c-.376,0-.637.011-.637.491v6.143c0,.692.251.825.763.993v.1h-2.634v-.1c.5-.167.763-.3.763-.993Z" transform="translate(-1182.561 509.223)" fill="#fff"/><path d="M946.061-459.464H951.6a4.588,4.588,0,0,1,2.744.732,2.4,2.4,0,0,1,1.016,1.976,2.343,2.343,0,0,1-1.084,2.044,4.133,4.133,0,0,1-1.694.587l2.265,2.212a2.64,2.64,0,0,0,1.042.671l.338.116v.958H953.67l-4.641-4.583v-.843h2.308c.621,0,1.663-.151,1.663-1.161,0-.941-.9-1.139-1.663-1.139h-2.267c-.034,0-.088,0-.137,0v6.132c0,.381.016.386.418.517l.345.113v.963h-3.634v-.96l.342-.114c.4-.132.421-.14.421-.518v-6.087c0-.287-.048-.362-.063-.379a1.139,1.139,0,0,0-.348-.147l-.352-.109Zm2,1h-.319a2.074,2.074,0,0,1,.081.615v6.087a2,2,0,0,1-.079.593h.265a2.017,2.017,0,0,1-.078-.593V-457.9A1.115,1.115,0,0,1,948.062-458.464Zm5.492,3.016q.089-.047.169-.1a1.35,1.35,0,0,0,.635-1.209,1.442,1.442,0,0,0-.807-1.3,2.022,2.022,0,0,1,.448,1.3A2.057,2.057,0,0,1,953.554-455.448Zm-2.887.853h-.056l3.469,3.426h.1l-.011-.01-.013-.013Z" transform="translate(-1182.561 509.223)" fill="rgba(0,0,0,0)"/><path d="M964.625-458.45v3.189h3.343c.638,0,.857-.357.993-.881h.115l-.178,2.275h-.125c-.052-.413-.241-.825-.7-.825h-3.448v2.854a.511.511,0,0,0,.585.569h3.981a1.858,1.858,0,0,0,1.63-1.181h.1l-.408,1.728H962.7v-.1c.512-.167.763-.3.763-.993V-457.9c0-.724-.251-.847-.763-1v-.112h6.928c.115,0,.23.011.345.011a.821.821,0,0,0,.481-.122h.126l-.188,1.728H970.3c-.032-.334-.136-1.048-.836-1.048Z" transform="translate(-1187.855 509.277)" fill="#fff"/><path d="M970.3-459.63h.838l-.3,2.728h-1l-.043-.453c-.056-.595-.233-.595-.338-.595h-4.338v2.189h2.843c.274,0,.389-.044.509-.507l.1-.374h1.042l-.256,3.275h-1.028l-.056-.437c-.015-.117-.064-.388-.2-.388h-2.948v2.354a.4.4,0,0,0,0,.062.443.443,0,0,0,.081.006h3.981c.613,0,.893-.4,1.2-.93l.144-.251h1.026l-.644,2.728H962.2v-.963l.345-.113c.4-.132.418-.137.418-.517V-457.9c0-.3-.051-.369-.061-.38a1.155,1.155,0,0,0-.347-.145l-.354-.108v-.982h7.428c.069,0,.133,0,.2.006s.1,0,.149,0a.346.346,0,0,0,.2-.035Zm-6.176,1.112h-.24a2.093,2.093,0,0,1,.08.615v6.087a2.017,2.017,0,0,1-.078.593h.4a1.153,1.153,0,0,1-.159-.615Z" transform="translate(-1187.855 509.277)" fill="rgba(0,0,0,0)"/><path d="M983.98-453.211h-5.2l-.784,1.427a.886.886,0,0,0-.125.4c0,.346.366.468.8.614v.1H976v-.1c.334-.1.773-.145,1.358-1.126l3.626-6.533a1.163,1.163,0,0,0-.857-.423v-.112H982.1l3.939,7.146a1.884,1.884,0,0,0,1.233,1.048v.1h-3.25v-.1c.606-.19,1.056-.345.847-.792Zm-4.89-.58h4.577l-2.257-4.2Z" transform="translate(-1192.216 509.223)" fill="#fff"/><path d="M987.771-450.169h-4.25v-.968l.351-.11a4.673,4.673,0,0,0,.5-.178l-.692-1.286h-4.609l-.64,1.165a.763.763,0,0,0-.056.127,2.891,2.891,0,0,0,.452.175l.343.113v.961H975.5v-.972l.356-.107.1-.028c.266-.074.54-.15.97-.869l3.413-6.149c-.069-.02-.164-.04-.305-.067l-.405-.078v-1.024h2.77l4.082,7.4a1.4,1.4,0,0,0,.924.806l.371.124Zm-2.373-1h.461a3.482,3.482,0,0,1-.26-.409l-3.8-6.886h-.079l3.6,6.691A.9.9,0,0,1,985.4-451.169Zm-5.461-3.121h2.894l-1.427-2.658Z" transform="translate(-1192.216 509.223)" fill="rgba(0,0,0,0)"/><path d="M995.1-450.7l6.682.035.386-1.728h-.1a1.923,1.923,0,0,1-1.734,1.181h-3.552c-.376,0-.606-.1-.606-.5v-6.132c0-.7.292-.847.784-1v-.112H994.3v.112c.522.167.773.279.773,1v6.176" transform="translate(-1198.219 509.223)" fill="#fff"/><path d="M1002.18-450.167,995.1-450.2l.005-1,.687,0a1.125,1.125,0,0,1-.119-.516v-6.132a1.948,1.948,0,0,1,.087-.615h-.265a2.071,2.071,0,0,1,.081.615v6.176h-1v-6.176c0-.293-.049-.362-.059-.372a1.28,1.28,0,0,0-.366-.155l-.347-.111v-.976h3.654v.977l-.349.111c-.394.125-.435.138-.435.527v6.129a1.051,1.051,0,0,0,.106,0h3.552a1.426,1.426,0,0,0,1.279-.888l.133-.293h1.051Z" transform="translate(-1198.219 509.223)" fill="rgba(0,0,0,0)"/><path d="M1014.218-450.669v-.1c.5-.167.773-.3.773-.993v-6.087c0-.724-.271-.847-.773-1v-.112h4.9c3.333,0,4.984,2.074,4.984,4.148s-1.651,4.147-4.984,4.147Zm1.859-1.025c0,.357.251.468.512.468h2.529a3.417,3.417,0,0,0,3.657-3.59,3.409,3.409,0,0,0-3.657-3.579h-3.041Z" transform="translate(-1204.752 509.223)" fill="#fff"/><path d="M1019.118-450.169h-5.4v-.96l.342-.114c.4-.133.431-.144.431-.518v-6.087c0-.283-.05-.358-.065-.375a1.149,1.149,0,0,0-.356-.151l-.352-.109v-.98h5.4a5.831,5.831,0,0,1,4.084,1.431,4.369,4.369,0,0,1,1.4,3.216,4.369,4.369,0,0,1-1.4,3.216A5.832,5.832,0,0,1,1019.118-450.169Zm-3.707-1h.3a1,1,0,0,1-.138-.525v-6.769h-.169a2.047,2.047,0,0,1,.082.615v6.087A1.968,1.968,0,0,1,1015.411-451.169Zm1.166-.557h2.541a2.938,2.938,0,0,0,3.157-3.09,3.183,3.183,0,0,0-.75-2.134,3.071,3.071,0,0,0-2.408-.945h-2.541Zm5.969-5.543a4.317,4.317,0,0,1,.729,2.453,4.343,4.343,0,0,1-.715,2.439,3.4,3.4,0,0,0,1.042-2.439A3.4,3.4,0,0,0,1022.546-457.27Z" transform="translate(-1204.752 509.223)" fill="rgba(0,0,0,0)"/><path d="M1032.1-450.724h7.114l.408-1.728h-.1a1.859,1.859,0,0,1-1.63,1.181h-3.982a.511.511,0,0,1-.585-.569v-2.854h3.448c.46,0,.648.413.7.825h.125l.178-2.275h-.115c-.136.524-.355.881-.993.881h-3.343v-3.189h4.838c.7,0,.8.714.836,1.048h.094l.188-1.728h-.126a.821.821,0,0,1-.48.122c-.115,0-.23-.011-.345-.011H1031.4v.112c.512.156.763.279.763,1v6.087" transform="translate(-1210.388 509.277)" fill="#fff"/><path d="M1039.611-450.224H1032.1v-1h.88a1.153,1.153,0,0,1-.159-.615v-6.68h-.24a2.1,2.1,0,0,1,.08.615v6.087h-1V-457.9c0-.3-.051-.369-.061-.38a1.155,1.155,0,0,0-.347-.145l-.354-.108v-.982h7.428c.069,0,.134,0,.2.006s.1,0,.149,0a.345.345,0,0,0,.2-.035l.128-.087h.838l-.3,2.728h-1l-.043-.453c-.056-.595-.233-.595-.338-.595h-4.338v2.189h2.843c.274,0,.389-.044.509-.507l.1-.374h1.042l-.256,3.275h-1.028l-.055-.437c-.015-.117-.064-.388-.2-.388h-2.948v2.354a.4.4,0,0,0,0,.062.441.441,0,0,0,.081.006h3.982c.612,0,.893-.4,1.2-.931l.144-.251h1.026Z" transform="translate(-1210.388 509.277)" fill="rgba(0,0,0,0)"/><path d="M1053.4-457.849c0-.724-.251-.847-.763-1v-.112h4.828c2.33,0,3.48.959,3.48,2.208,0,1.226-1.171,2.208-3.48,2.208h-2.957v2.787c0,.692.251.825.763.993v.1h-2.634v-.1c.512-.167.763-.3.763-.993Zm1.86-.569c-.45,0-.752.022-.752.5v2.821h2.967c1.609,0,2.111-.825,2.111-1.661s-.564-1.661-2.111-1.661Z" transform="translate(-1217.355 509.223)" fill="#fff"/><path d="M1052.14-459.464h5.328c2.934,0,3.98,1.4,3.98,2.708,0,1.249-1.042,2.708-3.98,2.708h-2.457v2.287c0,.381.016.386.418.517l.345.113v.963h-3.634v-.963l.345-.113c.4-.132.418-.137.418-.517v-6.087c0-.3-.051-.369-.061-.38a1.154,1.154,0,0,0-.347-.145l-.354-.108Zm2,1h-.318a2.1,2.1,0,0,1,.08.615v6.087a2.017,2.017,0,0,1-.078.593h.264a2.017,2.017,0,0,1-.078-.593v-6.154A1.08,1.08,0,0,1,1054.141-458.464Zm5.624,2.871a1.377,1.377,0,0,0,.682-1.163,1.354,1.354,0,0,0-.648-1.159q-.046-.031-.095-.061a2.088,2.088,0,0,1,.385,1.22A2.227,2.227,0,0,1,1059.765-455.593Zm-2.287,0c1.069,0,1.611-.391,1.611-1.161,0-.738-.587-1.161-1.611-1.161h-2.215c-.053,0-.17,0-.252.008v2.315Z" transform="translate(-1217.355 509.223)" fill="rgba(0,0,0,0)"/><path d="M1074.8-450.669h-7.481v-.1c.47-.156.773-.29.773-.9v-6.176c0-.724-.251-.836-.773-1v-.112h2.654v.112c-.491.156-.784.3-.784,1v6.132c0,.4.23.5.606.5h3.553a1.923,1.923,0,0,0,1.734-1.181h.1Z" transform="translate(-1222.169 509.223)" fill="#fff"/><path d="M1075.2-450.169h-8.382v-.961l.343-.114c.421-.139.431-.163.431-.429v-6.176c0-.293-.049-.361-.059-.372a1.281,1.281,0,0,0-.367-.155l-.347-.111v-.976h3.654v.978l-.349.111c-.394.125-.435.138-.435.527v6.129a1.049,1.049,0,0,0,.106,0h3.553a1.426,1.426,0,0,0,1.279-.888l.133-.293h1.05Zm-6.678-1h.3a1.107,1.107,0,0,1-.136-.548v-6.132a1.947,1.947,0,0,1,.087-.615h-.265a2.073,2.073,0,0,1,.081.615v6.176A1.688,1.688,0,0,1,1068.523-451.169Z" transform="translate(-1222.169 509.223)" fill="rgba(0,0,0,0)"/><path d="M1087.275-453.211h-5.2l-.784,1.427a.886.886,0,0,0-.125.4c0,.346.366.468.8.614v.1h-2.675v-.1c.335-.1.773-.145,1.359-1.126l3.625-6.533a1.161,1.161,0,0,0-.857-.423v-.112h1.975l3.939,7.146a1.884,1.884,0,0,0,1.233,1.048v.1h-3.25v-.1c.606-.19,1.055-.345.846-.792Zm-4.89-.58h4.576l-2.256-4.2Z" transform="translate(-1226.097 509.223)" fill="#fff"/><path d="M1091.067-450.169h-4.25v-.968l.351-.11a4.675,4.675,0,0,0,.5-.178l-.692-1.286h-4.609l-.64,1.165a.773.773,0,0,0-.056.126,2.9,2.9,0,0,0,.452.175l.343.113v.961h-3.675v-.972l.357-.107.1-.028c.266-.074.541-.15.971-.869l3.412-6.149c-.069-.02-.164-.04-.3-.067l-.405-.078v-1.024h2.77l4.082,7.4a1.4,1.4,0,0,0,.925.806l.371.124Zm-2.374-1h.462a3.5,3.5,0,0,1-.26-.409l-3.8-6.886h-.079l3.6,6.691A.9.9,0,0,1,1088.693-451.169Zm-5.461-3.121h2.893l-1.427-2.658Z" transform="translate(-1226.097 509.223)" fill="rgba(0,0,0,0)"/><path d="M1101.155-450.77v.1h-2.644v-.1c.47-.156.784-.279.784-.9v-6.667h-2.7c-.439,0-1.013.546-1.243,1.071h-.094l.188-1.695h8.766l.188,1.695h-.094c-.23-.524-.8-1.071-1.243-1.071h-2.7v6.667C1100.371-451.048,1100.674-450.926,1101.155-450.77Z" transform="translate(-1231.335 509.223)" fill="#fff"/><path d="M1101.655-450.169h-3.644v-.961l.343-.114c.442-.146.442-.162.442-.429v-6.167h-2.2a1.414,1.414,0,0,0-.785.771l-.131.3h-.979l.3-2.695h9.661l.3,2.695h-.979l-.131-.3a1.414,1.414,0,0,0-.786-.771h-2.2v6.167c0,.269,0,.285.438.428l.346.112Zm-1.93-1h.216a1.683,1.683,0,0,1-.07-.5v-6.791h-.076v6.791A1.666,1.666,0,0,1,1099.725-451.169Z" transform="translate(-1231.335 509.223)" fill="rgba(0,0,0,0)"/><path d="M1116.338-453.211h-5.2l-.784,1.427a.888.888,0,0,0-.125.4c0,.346.366.468.8.614v.1h-2.675v-.1c.334-.1.773-.145,1.358-1.126l3.626-6.533a1.162,1.162,0,0,0-.857-.423v-.112h1.975l3.939,7.146a1.885,1.885,0,0,0,1.233,1.048v.1h-3.25v-.1c.606-.19,1.056-.345.847-.792Zm-4.89-.58h4.577l-2.257-4.2Z" transform="translate(-1235.629 509.223)" fill="#fff"/><path d="M1120.129-450.169h-4.25v-.968l.351-.11a4.678,4.678,0,0,0,.5-.178l-.692-1.286h-4.609l-.64,1.164a.765.765,0,0,0-.056.127,2.893,2.893,0,0,0,.452.175l.343.113v.961h-3.675v-.972l.356-.107.1-.028c.266-.074.54-.15.97-.869l3.413-6.149c-.069-.02-.164-.04-.305-.067l-.405-.078v-1.024h2.77l4.082,7.4a1.4,1.4,0,0,0,.924.806l.371.124Zm-2.373-1h.461a3.482,3.482,0,0,1-.26-.409l-3.8-6.886h-.079l3.6,6.691A.9.9,0,0,1,1117.756-451.169Zm-5.461-3.121h2.894l-1.427-2.658Z" transform="translate(-1235.629 509.223)" fill="rgba(0,0,0,0)"/><path d="M1028.343-444.65" transform="translate(-1209.385 504.528)" fill="#fff"/><path transform="translate(-1209.385 504.528)" fill="rgba(0,0,0,0)"/><path d="M979.072-441.319c-.064,1.222.461,2.07,1.812,2.07,2.433,0,4.23-3.461,5.8-3.461l.382-.017c.1,0,.239.017.255.119v.017a.177.177,0,0,1-.175.153c-.1,0-.254-.169-.461-.136-.556.169-.97.831-2.146,2.732-1.479,2.408-3.117,5.038-6.01,5.038-3.164,0-2.751-3.749.3-3.749v.034a2.065,2.065,0,0,0-2.162,1.392c-.048.7.525,1.459,1.733,1.459,2.195,0,4.547-1.781,6.026-4.207,1.145-1.833,1.638-2.528,2.243-2.748v-.017c-1.511.068-3.34,3.5-5.789,3.5-2.321,0-2.512-1.256-2.512-2.257-3.26-.78-.906-6.769,2.8-6.769l-.016.068c-3.1,0-5.867,5.819-2.782,6.633,0-4.088,4.865-8.6,9.223-8.6,3.943,0,1.526,6.481-3.228,6.481-.334,0-.89-.068-1.081-.509a4.87,4.87,0,0,1-4.15,2.782Zm0-.068h.079a4.748,4.748,0,0,0,4.1-2.8.666.666,0,0,1-.032-.2v-.068c0-.153.079-.221.143-.221.079,0,.159.085.175.271a.744.744,0,0,0,.827.73c3.61,0,6.663-6.294,3.371-6.294C983.3-449.971,979.279-444.508,979.072-441.387Z" transform="translate(-1192.33 506.306)" fill="#fff"/><path d="M978.532-434.3a2.942,2.942,0,0,1-1.984-.652,2.057,2.057,0,0,1-.7-1.562,2.719,2.719,0,0,1,2.99-2.535h.153a2.084,2.084,0,0,1-.625-.542,2.583,2.583,0,0,1-.478-1.438,2.321,2.321,0,0,1-1.223-1.051,3.125,3.125,0,0,1-.307-1.883,5.842,5.842,0,0,1,1.51-3.141,4.539,4.539,0,0,1,3.306-1.565h.633l-.094.4a11.591,11.591,0,0,1,2.4-1.485,8.415,8.415,0,0,1,3.487-.814,2.544,2.544,0,0,1,1.858.669,2.269,2.269,0,0,1,.618,1.642,5.113,5.113,0,0,1-1.584,3.4,5.762,5.762,0,0,1-4.12,1.765,2.1,2.1,0,0,1-.954-.2,5.393,5.393,0,0,1-3.83,2.451,1.3,1.3,0,0,0,.3.758,1.326,1.326,0,0,0,1,.333c1.153,0,2.236-1,3.191-1.879.879-.81,1.709-1.575,2.6-1.582l.394-.017a.676.676,0,0,1,.749.541l.006.039v.1l-.009.046a.675.675,0,0,1-.667.559.763.763,0,0,1-.367-.11l-.028-.015c-.367.19-.837.948-1.787,2.484a19.129,19.129,0,0,1-2.546,3.512A5.346,5.346,0,0,1,978.532-434.3Zm-1.362-2.783a.759.759,0,0,0,.211.557,1.329,1.329,0,0,0,1.023.362,5.262,5.262,0,0,0,2.991-1.1,9.752,9.752,0,0,0,2.547-2.767,4.853,4.853,0,0,1-3.058,1.39,4.327,4.327,0,0,1-1.551-.243v.87h-.5A1.635,1.635,0,0,0,977.17-437.088Zm10.569-12.383c-1.075,0-3.224.384-5.548,2.957a10.732,10.732,0,0,0-2.54,4.592,4.4,4.4,0,0,0,3.082-2.313,1.169,1.169,0,0,1-.01-.153v-.068a.686.686,0,0,1,.469-.695l.092-.214.081.188h0a.714.714,0,0,1,.673.728v.018c.006.114.013.255.327.255a4.162,4.162,0,0,0,2.96-1.6,4.918,4.918,0,0,0,1.318-2.829.906.906,0,0,0-.2-.638A.946.946,0,0,0,987.738-449.471Zm-6.814,1.88c-1.592.184-3.156,2.214-3.373,3.89a1.578,1.578,0,0,0,.374,1.45A9.3,9.3,0,0,1,980.924-447.591Z" transform="translate(-1192.33 506.306)" fill="rgba(0,0,0,0)"/><path d="M995.993-440.075c-1.287,1.9-2.7,3.173-3.18,3.173-.382,0-.525-.407-.525-.8a4.329,4.329,0,0,1,.827-2.12c.81-1.222,1.781-2.053,1.812-2.291,0-.085-.032-.1-.111-.1a5.509,5.509,0,0,1-1.288.2c-.477.95-3.308,5.107-3.785,5.107-.19,0-.238-.119-.19-.187.206,0,.349-.068.667-.39a29.138,29.138,0,0,0,3.244-4.547c.159-.424-.079-.577-.079-.95,0-.339.413-.339.413,0a2.329,2.329,0,0,1-.222.9,16.55,16.55,0,0,0,1.669-.323c.239,0,.334.1.334.271a1.549,1.549,0,0,1-.3.712c-.382.509-1.081,1.273-1.558,1.952a5.88,5.88,0,0,0-1.049,2.239c0,.153.047.238.175.238.477,0,1.956-1.46,3.068-3.088Z" transform="translate(-1196.657 504.062)" fill="#fff"/><path d="M992.813-436.4c-.613,0-1.025-.522-1.025-1.3a3.1,3.1,0,0,1,.212-1.049c-.439.612-.835,1.131-1.148,1.5-.529.63-.809.843-1.108.843a.7.7,0,0,1-.639-.355.6.6,0,0,1,.04-.619l.149-.213h.26c.027,0,.073,0,.312-.241a28.42,28.42,0,0,0,3.144-4.408c.02-.067.01-.1-.029-.219a1.6,1.6,0,0,1-.1-.519.724.724,0,0,1,.707-.755.724.724,0,0,1,.707.755,2.03,2.03,0,0,1-.022.288c.079-.021.155-.043.23-.065a2.763,2.763,0,0,1,.74-.146.761.761,0,0,1,.834.771,1.881,1.881,0,0,1-.382.984l-.02.028c-.165.22-.381.479-.61.753-.313.375-.668.8-.936,1.182a9.485,9.485,0,0,0-.728,1.27,14.074,14.074,0,0,0,2.1-2.446l.149-.218h1.287l-.529.781C995.483-438.431,993.763-436.4,992.813-436.4Z" transform="translate(-1196.657 504.062)" fill="rgba(0,0,0,0)"/><path d="M1003.908-439.8h.079c-1.034,1.51-2.783,3.173-3.419,3.173-.271,0-.382-.288-.382-.526a4.159,4.159,0,0,1,.874-1.815c-1.017,1.239-2.258,2.375-2.719,2.375s-.525-.661-.525-.9c0-1.679,2.083-4.665,4.007-4.665a.584.584,0,0,1,.652.644,2.724,2.724,0,0,1-.4,1.1l1.256-1.781c.159.271.6.085.843-.2h.016c-.589.9-1.32,1.9-1.925,2.782a14.235,14.235,0,0,0-1.812,2.816c0,.068.032.1.1.1C1001.157-436.7,1002.89-438.31,1003.908-439.8Zm-5.566,3.138c.8,0,4.07-3.6,4.07-4.852,0-.374-.191-.526-.476-.526a2.02,2.02,0,0,0-1.288.713,11.428,11.428,0,0,0-1.638,2.273,5.613,5.613,0,0,0-.843,2.155c0,.153.048.237.175.237Z" transform="translate(-1199.373 503.789)" fill="#fff"/><path d="M1003.375-443.117l.3.508a.552.552,0,0,0,.121-.107l.15-.181h1.176l-.507.774c-.373.57-.8,1.179-1.216,1.768-.252.358-.49.7-.714,1.024l0,.005-.4.567c-.132.186-.271.382-.408.577a12.28,12.28,0,0,0,1.627-1.9l.149-.218h1.292l-.536.782c-.784,1.145-2.777,3.39-3.831,3.39a.874.874,0,0,1-.847-.722,2.62,2.62,0,0,1-1.38.755c-.613,0-1.025-.562-1.025-1.4a5.814,5.814,0,0,1,1.391-3.274,4.318,4.318,0,0,1,3.116-1.891,1.117,1.117,0,0,1,.932.419Zm-4.569,5.642a11.924,11.924,0,0,0,1.576-1.568,6.034,6.034,0,0,0,1.532-2.473q0-.014,0-.025a1.661,1.661,0,0,0-.9.554l-.005.005a10.958,10.958,0,0,0-1.56,2.168l0,.005A8.829,8.829,0,0,0,998.806-437.475Z" transform="translate(-1199.373 503.789)" fill="rgba(0,0,0,0)"/><path d="M1012.28-439.7c-1.034,1.509-2.576,3.172-3.211,3.172-.271,0-.382-.288-.382-.526a6.889,6.889,0,0,1,1.511-2.765,4.482,4.482,0,0,0,.954-1.866c0-.238-.127-.323-.3-.323a.749.749,0,0,0-.318.085c-1.13.645-3.164,4.157-4.007,5.429a.892.892,0,0,0-.779,0c1.653-2.681,2.973-4.5,2.973-5.276,0-.153-.032-.238-.111-.238-.255,0-1.129,1.086-2.019,2.308h-.08a9.3,9.3,0,0,1,2.068-2.375.332.332,0,0,1,.127-.017c.254,0,.509.187.509.661,0,.8-1.065,2.087-1.336,2.562a11.564,11.564,0,0,1,2.608-3.1.9.9,0,0,1,.413-.119.668.668,0,0,1,.668.729,3.615,3.615,0,0,1-.763,1.849,14.564,14.564,0,0,0-1.845,2.816c0,.068.032.1.1.1.6,0,2.131-1.612,3.149-3.1Z" transform="translate(-1201.973 503.69)" fill="#fff"/><path d="M1008.7-442.595a.977.977,0,0,1,.924.655,3.165,3.165,0,0,1,.613-.473l.008,0a1.379,1.379,0,0,1,.649-.178,1.16,1.16,0,0,1,1.168,1.229,4.025,4.025,0,0,1-.854,2.137l-.233.325c.287-.35.564-.719.81-1.08l.149-.218h1.291l-.536.783a17.034,17.034,0,0,1-1.811,2.22c-1.031,1.048-1.528,1.169-1.813,1.169a.93.93,0,0,1-.882-1.026c0-.708.564-1.621,1.606-3.059l0-.006a6.733,6.733,0,0,0,.732-1.185,25.029,25.029,0,0,0-2.97,4.117c-.242.385-.451.717-.619.97l-.326.492-.378-.352a.593.593,0,0,0-.079,0,.559.559,0,0,0-.158.02l-1.8,1.127,1.122-1.82c.412-.668.808-1.29,1.157-1.838.174-.273.345-.542.509-.8l-.144.2h-1.312l.572-.793c1.695-2.348,2.122-2.514,2.34-2.565A.828.828,0,0,1,1008.7-442.595Z" transform="translate(-1201.973 503.69)" fill="rgba(0,0,0,0)"/><path d="M1016.792-437.718c.6,0,2.146-1.611,3.164-3.1h.08c-1.033,1.51-2.592,3.173-3.228,3.173-.271,0-.382-.288-.382-.526a3.379,3.379,0,0,1,.62-1.459c-.938,1.086-1.988,2.019-2.4,2.019-.462,0-.525-.662-.525-.9,0-1.679,2.083-4.666,4.006-4.666a.585.585,0,0,1,.652.645,1.6,1.6,0,0,1-.191.679c.922-1.306,1.67-2.345,2.274-3.227.191.288.747-.1.986-.424-.588.916-2.72,3.973-3.34,4.872a14.232,14.232,0,0,0-1.812,2.816c0,.068.031.1.1.1Zm-2.147.034c.446,0,1.718-1.171,2.7-2.409.254-.356.509-.73.779-1.1.048-.068.112-.17.207-.289a2.331,2.331,0,0,0,.382-1.052c0-.373-.191-.526-.477-.526a2.019,2.019,0,0,0-1.288.712,11.442,11.442,0,0,0-1.638,2.273,5.6,5.6,0,0,0-.843,2.154c0,.153.048.238.175.238Z" transform="translate(-1204.721 504.809)" fill="#fff"/><path d="M1014.646-437.116c-.613,0-1.025-.562-1.025-1.4a5.816,5.816,0,0,1,1.391-3.274,4.317,4.317,0,0,1,3.116-1.892,1.138,1.138,0,0,1,.885.361l.025-.035c.542-.764,1.011-1.424,1.413-2.012l.42-.613.29.438a1.185,1.185,0,0,0,.287-.264l.823.568c-.472.736-1.932,2.841-2.8,4.1l-.545.788,0,0-.4.566-.046.065a15.35,15.35,0,0,0,1.072-1.388l.149-.218h1.292l-.535.782c-.021.03-1.835,2.664-3.156,3.268v.055h-.134a1.047,1.047,0,0,1-.35.068.867.867,0,0,1-.837-.685C1015.225-437.2,1014.871-437.116,1014.646-437.116Zm3.57-5.445a1.657,1.657,0,0,0-.9.553l0,.005a10.974,10.974,0,0,0-1.56,2.169l0,.005a8.784,8.784,0,0,0-.64,1.335,12.675,12.675,0,0,0,1.842-1.9q.155-.218.312-.443c.148-.212.3-.43.459-.649l.034-.049c.041-.06.1-.141.167-.232a1.874,1.874,0,0,0,.3-.769C1018.216-442.545,1018.216-442.554,1018.216-442.561Z" transform="translate(-1204.721 504.809)" fill="rgba(0,0,0,0)"/><path d="M1045.824-449.452c-2.528,0-8.332,8.127-8.332,11.129,0,.7.143,1.1.875,1.1a1.605,1.605,0,0,0,1.638-1.34.918.918,0,0,1,.048.288c0,.628-.683,1.137-1.7,1.137a1.32,1.32,0,0,1-1.479-1.476c0-1.289.891-3.257,2.163-5.157h-.286c-.286-.017-.875-.017-1.431-.017h-.731c-2.37,3.529-4.993,6.176-7.84,6.176a2.356,2.356,0,0,1-2.512-2.29,6.749,6.749,0,0,1,4.023-5.463,2.555,2.555,0,0,1-.239-1.306c.128-1.6,1.606-3.682,4.93-3.682,2.051,0,3.784,1.086,5.724,1.086.207,0,.636-.323.779-.373.255-.1.366.153.207.271a1.982,1.982,0,0,1-.986.187c-1.94,0-3.721-.747-5.756-.747-3.18,0-4.659,1.663-4.786,3.258a2.145,2.145,0,0,0,.27,1.239,6.706,6.706,0,0,1,2.64-.543c1.367,0,1.924.611,1.924,1.442,0,1.56-2.067,3.834-4.563,3.834-.652,0-1.447-.272-1.351-.865l.048-.017c.079.526.843.492,1.288.492,2.48,0,4.516-2.087,4.516-3.511,0-.747-.541-1.306-1.861-1.306a6.474,6.474,0,0,0-2.592.543,2.855,2.855,0,0,0,2.592,1.171,5.654,5.654,0,0,0,1.129-.119v.034a5.5,5.5,0,0,1-1.447.237h-.079a2.48,2.48,0,0,1-2.353-1.255c-2.29,1.069-3.785,3.308-3.785,4.971a2.172,2.172,0,0,0,2.37,2c2.719,0,5.279-2.545,7.409-5.463-.175.017-.318.017-.382.017-.206.017-.4.017-.6.017-.1,0-.127-.034-.127-.068,0-.05.032-.085.127-.085.222,0,.429,0,.636.017h.414l.524-.712c2.656-3.851,4.007-4.445,4.31-4.445.048,0,.048.05,0,.05-.3,0-1.813.866-4.1,4.445-.143.237-.286.458-.429.679h.684c.413,0,1.065-.017,1.319-.034.159,0,.318-.017.493-.017,1.956-2.867,4.77-5.582,6.694-5.582h0" transform="translate(-1208.694 506.398)" fill="#fff"/><path d="M1038.351-436.635a1.817,1.817,0,0,1-1.979-1.976,10.113,10.113,0,0,1,1.758-4.672c-.254,0-.543,0-.813,0h-.466a21.116,21.116,0,0,1-3.684,4.294,6.936,6.936,0,0,1-4.421,1.882,2.843,2.843,0,0,1-3.012-2.79,5.925,5.925,0,0,1,1.178-3.292,7.946,7.946,0,0,1,2.717-2.418,3.135,3.135,0,0,1-.109-1.1,4.263,4.263,0,0,1,1.431-2.774,5.779,5.779,0,0,1,4-1.371,10.847,10.847,0,0,1,3.082.574,9.641,9.641,0,0,0,2.609.512,2.789,2.789,0,0,0,.324-.176,2.007,2.007,0,0,1,.311-.165.686.686,0,0,1,.875.281.66.66,0,0,1-.187.855,1.031,1.031,0,0,1-.281.142.536.536,0,0,1-.455.332c-.117.046-1.416.631-3.667,4.124.4,0,.872-.019,1.06-.032h.033c.065,0,.135,0,.209-.007h.016a21.176,21.176,0,0,1,3.3-3.751,6.076,6.076,0,0,1,3.664-1.839v1h-.017v.05c-.943,0-2.881,1.741-4.711,4.234s-3.121,5.133-3.121,6.395c0,.6.087.6.375.6.01,0,1.026-.01,1.142-.9l.294-2.265.679,2.18a1.415,1.415,0,0,1,.07.437C1040.553-437.323,1039.627-436.635,1038.351-436.635Zm-8.234-8.012a5.68,5.68,0,0,0-3.112,4.323,1.678,1.678,0,0,0,1.87,1.5,5.912,5.912,0,0,0,3.612-1.527,13.521,13.521,0,0,0,1.117-1.011,5.2,5.2,0,0,1-3.2,1.162,2.186,2.186,0,0,1-1.606-.593,1.039,1.039,0,0,1-.239-.851l.047-.289.9-.329.09.595a2.089,2.089,0,0,0,.716.078h.079a4.542,4.542,0,0,0,3.761-2.164,5.711,5.711,0,0,1-1.423.213h-.079A3.079,3.079,0,0,1,1030.117-444.647Zm5.041,1.384a4.334,4.334,0,0,1-.21.4q.153-.188.308-.386A.78.78,0,0,1,1035.158-443.263Zm.8-1.124h.141l.37-.5a20.159,20.159,0,0,1,3.223-3.846c-.657-.07-1.3-.2-1.921-.321a14.639,14.639,0,0,0-2.851-.37,5.192,5.192,0,0,0-3.229.924,2.659,2.659,0,0,0-1.059,1.874,1.721,1.721,0,0,0,.046.557,7.161,7.161,0,0,1,2.365-.4c1.518,0,2.424.726,2.424,1.942q0,.064,0,.128C1035.627-444.4,1035.789-444.4,1035.954-444.387Zm-4.636-.764a2.937,2.937,0,0,0,1.722.459,5.143,5.143,0,0,0,1.029-.109l.289-.059c-.134-.362-.575-.546-1.317-.546A5.928,5.928,0,0,0,1031.318-445.151ZM1045.841-449v-1h0Z" transform="translate(-1208.694 506.398)" fill="rgba(0,0,0,0)"/><path d="M1053.29-439.8h.079c-1.033,1.51-2.783,3.173-3.418,3.173-.27,0-.382-.288-.382-.526a4.161,4.161,0,0,1,.874-1.815c-1.017,1.239-2.258,2.375-2.719,2.375s-.524-.661-.524-.9c0-1.679,2.083-4.665,4.006-4.665a.584.584,0,0,1,.652.644,2.713,2.713,0,0,1-.4,1.1l1.256-1.781c.159.271.6.085.843-.2h.016c-.589.9-1.32,1.9-1.924,2.782a14.22,14.22,0,0,0-1.813,2.816c0,.068.032.1.1.1C1050.538-436.7,1052.271-438.31,1053.29-439.8Zm-5.566,3.138c.795,0,4.071-3.6,4.071-4.852,0-.374-.191-.526-.477-.526a2.02,2.02,0,0,0-1.288.713,11.423,11.423,0,0,0-1.638,2.273,5.611,5.611,0,0,0-.843,2.155c0,.153.048.237.175.237Z" transform="translate(-1215.57 503.789)" fill="#fff"/><path d="M1052.756-443.117l.3.508a.552.552,0,0,0,.121-.107l.15-.181h1.176l-.507.774c-.371.566-.8,1.172-1.209,1.758-.254.361-.495.7-.721,1.033l0,.006-.4.562c-.133.187-.274.385-.412.582a12.282,12.282,0,0,0,1.626-1.9l.149-.218h1.292l-.536.782c-.784,1.145-2.776,3.39-3.831,3.39a.874.874,0,0,1-.847-.722,2.62,2.62,0,0,1-1.38.755c-.613,0-1.024-.562-1.024-1.4a5.814,5.814,0,0,1,1.391-3.274,4.317,4.317,0,0,1,3.116-1.891,1.118,1.118,0,0,1,.932.419Zm-4.569,5.643a11.93,11.93,0,0,0,1.576-1.568,6.035,6.035,0,0,0,1.532-2.473c0-.009,0-.018,0-.025a1.66,1.66,0,0,0-.9.554l-.005.005a10.954,10.954,0,0,0-1.56,2.168l0,.005A8.816,8.816,0,0,0,1048.187-437.474Z" transform="translate(-1215.57 503.789)" fill="rgba(0,0,0,0)"/><path d="M1059.134-442.145a.514.514,0,0,1,.541.56,1.043,1.043,0,0,1-.8,1.018c-.191.034-.239-.051-.254-.136a.185.185,0,0,1,.191-.187.7.7,0,0,0,.747-.78.377.377,0,0,0-.429-.407c-1.177,0-3.8,4.207-3.8,5.259,0,.153.048.237.175.237,1.017,0,3.2-1.663,4.214-3.121h.08c-1.034,1.476-3.244,3.189-4.293,3.189-.445,0-.525-.661-.525-.9,0-1.679,2.226-4.733,4.15-4.733Z" transform="translate(-1218.124 503.706)" fill="#fff"/><path d="M1059.134-442.645a1.016,1.016,0,0,1,1.041,1.06,1.543,1.543,0,0,1-1.21,1.511.949.949,0,0,1-.164.015.653.653,0,0,1-.668-.553l-.008-.045v-.045c0-.02,0-.041,0-.061a11.691,11.691,0,0,0-.925,1.207,11.384,11.384,0,0,0-1.286,2.384,9.04,9.04,0,0,0,3.4-2.816l.149-.214h1.3l-.551.787c-1.079,1.541-3.418,3.4-4.7,3.4-.7,0-1.025-.725-1.025-1.4a5.837,5.837,0,0,1,1.467-3.313A4.494,4.494,0,0,1,1059.134-442.645Z" transform="translate(-1218.124 503.706)" fill="rgba(0,0,0,0)"/><path d="M1063.888-443.517c-.589.9-1.32,1.9-1.924,2.782a14.216,14.216,0,0,0-1.813,2.816c0,.068.032.1.1.1.6,0,2.337-1.612,3.355-3.1h.079c-1.033,1.51-2.782,3.173-3.418,3.173-.27,0-.382-.288-.382-.526,0-.644.843-1.8,1.718-3.02.477-.678.668-.933,1.431-2.019.159.271.6.085.843-.2Zm.763-2.29c.191.017.239.255.112.543-.127.271-.365.475-.556.458-.175-.017-.239-.255-.112-.543.128-.272.382-.492.556-.458Z" transform="translate(-1219.73 504.908)" fill="#fff"/><path d="M1064.615-446.311a.7.7,0,0,1,.1.008.678.678,0,0,1,.508.33,1,1,0,0,1-.006.91l0,.01a1.2,1.2,0,0,1-.987.747l-.066,0h-.006a.676.676,0,0,1-.521-.337,1,1,0,0,1,0-.905l.005-.011A1.2,1.2,0,0,1,1064.615-446.311Zm-1.546,2.072.3.509a.553.553,0,0,0,.121-.107l.15-.181h1.176l-.507.774c-.371.567-.8,1.173-1.21,1.759-.254.361-.494.7-.72,1.032l0,.006-.4.561c-.133.188-.274.386-.413.583a12.282,12.282,0,0,0,1.626-1.9l.149-.218h1.292l-.536.782a14.166,14.166,0,0,1-1.929,2.235c-1.234,1.155-1.737,1.155-1.9,1.155a.93.93,0,0,1-.882-1.026c0-.746.655-1.7,1.725-3.19l.086-.121c.206-.292.36-.508.53-.747.219-.307.468-.656.9-1.268Z" transform="translate(-1219.73 504.908)" fill="rgba(0,0,0,0)"/><path d="M1068.935-439.719c-1.05,1.492-3.244,3.206-4.293,3.206-.445,0-.525-.661-.525-.9,0-1.679,2.274-4.733,4.2-4.733,1,0,.541,1.272-.906,2.052a4.982,4.982,0,0,1-1.622.509,7.346,7.346,0,0,0-1.32,2.765c0,.153.048.237.175.237,1.018,0,3.181-1.679,4.214-3.138Zm-2.623-.611c-.176.22-.334.458-.493.7a4.415,4.415,0,0,0,1.558-.526c1.129-.644,1.463-1.934.938-1.934C1067.806-442.095,1067.027-441.3,1066.312-440.33Z" transform="translate(-1221.119 503.706)" fill="#fff"/><path d="M1068.315-442.645a.948.948,0,0,1,1.007.682c.181.717-.524,1.689-1.676,2.31l-.007,0a5.6,5.6,0,0,1-1.56.528,9.662,9.662,0,0,0-1.028,1.948,9.146,9.146,0,0,0,3.4-2.835l.149-.211h1.3l-.554.788a11.062,11.062,0,0,1-2.254,2.274,4.864,4.864,0,0,1-2.449,1.145c-.7,0-1.025-.725-1.025-1.4a5.806,5.806,0,0,1,1.493-3.316A4.557,4.557,0,0,1,1068.315-442.645Zm-1.134,2.02a2.081,2.081,0,0,0,.726-.734A5.555,5.555,0,0,0,1067.181-440.625Z" transform="translate(-1221.119 503.706)" fill="rgba(0,0,0,0)"/><path d="M1076.567-439.7c-1.033,1.509-2.576,3.172-3.212,3.172-.27,0-.382-.288-.382-.526a6.9,6.9,0,0,1,1.51-2.765,4.477,4.477,0,0,0,.954-1.866c0-.238-.127-.323-.3-.323a.751.751,0,0,0-.318.085c-1.129.645-3.164,4.157-4.007,5.429a.892.892,0,0,0-.779,0c1.654-2.681,2.974-4.5,2.974-5.276,0-.153-.032-.238-.112-.238-.254,0-1.129,1.086-2.019,2.308h-.079a9.319,9.319,0,0,1,2.067-2.375.335.335,0,0,1,.128-.017c.254,0,.509.187.509.661,0,.8-1.065,2.087-1.336,2.562a11.562,11.562,0,0,1,2.608-3.1.9.9,0,0,1,.413-.119.668.668,0,0,1,.668.729,3.615,3.615,0,0,1-.763,1.849,14.565,14.565,0,0,0-1.845,2.816c0,.068.032.1.1.1.6,0,2.131-1.612,3.148-3.1Z" transform="translate(-1223.059 503.69)" fill="#fff"/><path d="M1072.99-442.595a.977.977,0,0,1,.924.655,3.167,3.167,0,0,1,.614-.473l.008,0a1.378,1.378,0,0,1,.649-.178,1.16,1.16,0,0,1,1.168,1.229,4.025,4.025,0,0,1-.854,2.137l-.23.32c.286-.349.561-.716.807-1.076l.149-.218h1.292l-.536.782a17.029,17.029,0,0,1-1.811,2.22c-1.031,1.048-1.529,1.169-1.814,1.169a.93.93,0,0,1-.882-1.026c0-.706.564-1.62,1.605-3.058l.005-.007a6.706,6.706,0,0,0,.733-1.186,25.036,25.036,0,0,0-2.971,4.118c-.242.385-.451.717-.618.969l-.327.493-.378-.354a.6.6,0,0,0-.078,0,.558.558,0,0,0-.159.02l-1.8,1.12,1.119-1.813c.411-.667.807-1.288,1.156-1.836.175-.275.349-.547.514-.81l-.147.2h-1.311l.572-.793c1.695-2.348,2.121-2.514,2.339-2.565A.831.831,0,0,1,1072.99-442.595Z" transform="translate(-1223.059 503.69)" fill="rgba(0,0,0,0)"/><path d="M1081.08-437.713c.6,0,2.146-1.611,3.164-3.1h.08c-1.034,1.51-2.592,3.173-3.228,3.173-.27,0-.382-.288-.382-.525a3.388,3.388,0,0,1,.62-1.459c-.938,1.086-1.987,2.019-2.4,2.019-.461,0-.524-.662-.524-.9,0-1.679,2.083-4.666,4.006-4.666a.584.584,0,0,1,.652.645,1.6,1.6,0,0,1-.19.679c.922-1.306,1.664-2.333,2.268-3.216.191.288.747-.1.986-.424-.589.916-2.714,3.961-3.334,4.861a14.232,14.232,0,0,0-1.812,2.816c0,.068.032.1.1.1Zm-2.147.034c.445,0,1.717-1.171,2.7-2.409.255-.356.509-.73.78-1.1.048-.068.111-.17.206-.289a2.331,2.331,0,0,0,.382-1.052c0-.373-.191-.526-.477-.526a2.019,2.019,0,0,0-1.288.712,11.453,11.453,0,0,0-1.638,2.273,5.607,5.607,0,0,0-.843,2.154c0,.153.048.238.175.238Z" transform="translate(-1225.807 504.803)" fill="#fff"/><path d="M1078.933-437.11c-.613,0-1.024-.562-1.024-1.4a5.816,5.816,0,0,1,1.391-3.274,4.317,4.317,0,0,1,3.116-1.892,1.137,1.137,0,0,1,.885.362l.062-.088c.524-.738.977-1.374,1.37-1.948l.42-.613.29.438a1.185,1.185,0,0,0,.287-.264l.822.568c-.47.731-1.861,2.736-2.781,4.063l-.562.811,0,0-.4.566-.047.066a15.337,15.337,0,0,0,1.073-1.388l.149-.218h1.292l-.536.782c-.021.03-1.835,2.663-3.156,3.267v.055h-.135a1.05,1.05,0,0,1-.35.068.867.867,0,0,1-.837-.685C1079.513-437.192,1079.158-437.11,1078.933-437.11Zm3.57-5.445a1.657,1.657,0,0,0-.9.553l0,.005a10.983,10.983,0,0,0-1.56,2.169l0,.005a8.812,8.812,0,0,0-.64,1.334,12.679,12.679,0,0,0,1.841-1.9c.106-.149.213-.3.321-.455.145-.208.3-.422.451-.636l.033-.049c.041-.06.094-.141.166-.232a1.873,1.873,0,0,0,.3-.769C1082.5-442.54,1082.5-442.548,1082.5-442.555Z" transform="translate(-1225.807 504.803)" fill="rgba(0,0,0,0)"/><path d="M1091.952-439.8h.079c-1.033,1.51-2.782,3.173-3.418,3.173-.27,0-.382-.288-.382-.526a4.157,4.157,0,0,1,.875-1.815c-1.018,1.239-2.259,2.375-2.719,2.375s-.525-.661-.525-.9c0-1.679,2.083-4.665,4.006-4.665a.584.584,0,0,1,.653.644,2.714,2.714,0,0,1-.4,1.1l1.256-1.781c.159.271.6.085.843-.2h.016c-.588.9-1.32,1.9-1.924,2.782a14.213,14.213,0,0,0-1.813,2.816c0,.068.032.1.1.1C1089.2-436.7,1090.934-438.31,1091.952-439.8Zm-5.565,3.138c.8,0,4.07-3.6,4.07-4.852,0-.374-.191-.526-.477-.526a2.02,2.02,0,0,0-1.288.713,11.448,11.448,0,0,0-1.638,2.273,5.622,5.622,0,0,0-.843,2.155c0,.153.048.237.175.237Z" transform="translate(-1228.252 503.789)" fill="#fff"/><path d="M1091.418-443.117l.3.508a.554.554,0,0,0,.121-.107l.15-.181h1.176l-.506.774c-.371.567-.8,1.173-1.21,1.759-.254.361-.494.7-.72,1.032l0,.006-.4.559c-.134.189-.276.388-.415.586a12.254,12.254,0,0,0,1.627-1.9l.149-.218h1.292l-.536.782a14.167,14.167,0,0,1-1.929,2.235c-1.234,1.155-1.737,1.155-1.9,1.155a.874.874,0,0,1-.847-.722,2.621,2.621,0,0,1-1.379.755c-.613,0-1.025-.562-1.025-1.4a5.814,5.814,0,0,1,1.391-3.274,4.317,4.317,0,0,1,3.116-1.891,1.119,1.119,0,0,1,.932.419Zm-4.569,5.643a11.914,11.914,0,0,0,1.576-1.569,6.034,6.034,0,0,0,1.532-2.473c0-.009,0-.018,0-.025a1.659,1.659,0,0,0-.9.554l0,.005a10.973,10.973,0,0,0-1.56,2.168l0,0A8.855,8.855,0,0,0,1086.849-437.474Z" transform="translate(-1228.252 503.789)" fill="rgba(0,0,0,0)"/><path d="M1021.708-434.511" transform="translate(-1207.209 501.202)" fill="#fff"/><path transform="translate(-1207.209 501.202)" fill="rgba(0,0,0,0)"/><path d="M1090.767-447.166" transform="translate(-1229.86 505.353)" fill="#fff"/><path transform="translate(-1229.86 505.353)" fill="rgba(0,0,0,0)"/><path d="M1083.85-437.027" transform="translate(-1227.592 502.027)" fill="#fff"/><path transform="translate(-1227.592 502.027)" fill="rgba(0,0,0,0)"/><path d="M1090.681-446.629" transform="translate(-1229.832 505.177)" fill="#fff"/><path transform="translate(-1229.832 505.177)" fill="rgba(0,0,0,0)"/><path d="M1085.15-438.529" transform="translate(-1228.018 502.52)" fill="#fff"/><path transform="translate(-1228.018 502.52)" fill="rgba(0,0,0,0)"/><path d="M1006.62-423.6v.877c0,.217.1.26.274.317v.032h-.913v-.036c.147-.05.26-.068.26-.3v-1.953c0-.228-.085-.274-.263-.328v-.036h2.5c.021-.011.025-.028.039-.036h.032l-.064.549h-.032c-.021-.164-.093-.331-.289-.331h-1.54v1.066h1.08c.228,0,.285-.093.345-.282h.032v.727h-.036c-.05-.15-.075-.267-.328-.267Z" transform="translate(-1202.05 498.103)" fill="#fff"/><path d="M1007.394-421.874h-1.913v-.892l.26-.089v-1.684l-.263-.08v-.907h2.843l.068-.036h.717l-.18,1.549h-.348v1.18h-.9l-.089-.267h-.472v.242l.274.088Zm-.274-2.4h.47l.021-.066h-.491Z" transform="translate(-1202.05 498.103)" fill="rgba(0,0,0,0)"/><path d="M1013.069-423.143a1.012,1.012,0,0,1-1.155,1.066c-.784,0-1.194-.282-1.194-1.066v-.9c0-.185-.078-.232-.217-.271v-.036h.827v.036c-.132.046-.217.082-.217.271v.9c0,.688.339.88.866.88a.781.781,0,0,0,.877-.88v-.9c0-.185-.079-.232-.218-.271v-.036h.649v.036c-.139.039-.218.085-.218.271Z" transform="translate(-1203.534 497.87)" fill="#fff"/><path d="M1011.914-421.577c-1.4,0-1.694-.851-1.694-1.566v-.733l-.217-.061v-.915h1.827v.89l-.217.076v.742a.51.51,0,0,0,.068.325c.015.013.079.056.3.056.307,0,.377-.071.377-.38v-.732l-.218-.061v-.915h1.649v.915l-.218.061v.732A1.5,1.5,0,0,1,1011.914-421.577Z" transform="translate(-1203.534 497.87)" fill="rgba(0,0,0,0)"/><path d="M1018.168-422.077h-.036l-2.278-1.939v1.6c0,.164.082.207.218.246v.032h-.653v-.032c.136-.036.218-.082.218-.246v-1.665c0-.15-.089-.193-.218-.232v-.036h.606l1.932,1.672v-1.394c0-.161-.089-.2-.221-.243v-.036h.648v.036c-.135.039-.217.082-.217.243Z" transform="translate(-1205.147 497.87)" fill="#fff"/><path d="M1018.668-421.577h-.72l-1.594-1.357v.321l.218.063v.909h-1.653v-.918l.218-.057v-1.263l-.218-.066v-.906h.435v-.247l.29.247h.568l1.025.887v-.887h1.648v.912l-.217.063Z" transform="translate(-1205.147 497.87)" fill="rgba(0,0,0,0)"/><path d="M1020.783-422.141v-.032c.139-.043.218-.085.218-.271v-1.6c0-.185-.079-.232-.218-.271v-.036h1.187c1.2,0,1.65.552,1.65,1.1s-.445,1.105-1.65,1.105Zm.581-.257c0,.071.067.085.142.085h.463c.866,0,1.216-.467,1.216-.934s-.349-.927-1.216-.927h-.606Z" transform="translate(-1206.906 497.87)" fill="#fff"/><path d="M1021.97-421.641h-1.687v-.9l.218-.067v-1.266l-.218-.061v-.915h1.687c1.587,0,2.15.865,2.15,1.6S1023.557-421.641,1021.97-421.641Zm-.106-1.171h.106c.215,0,.716-.042.716-.434s-.5-.427-.716-.427h-.106Z" transform="translate(-1206.906 497.87)" fill="rgba(0,0,0,0)"/><path d="M1027.539-422.8h-1.433l-.21.36a.234.234,0,0,0-.039.107c0,.079.085.122.235.161v.032h-.795v-.032a.52.52,0,0,0,.385-.31l1.013-1.7a.346.346,0,0,0-.246-.128v-.036h.591l1.109,1.886a.5.5,0,0,0,.378.292v.032h-.99v-.032c.128-.039.3-.11.2-.278Zm-1.323-.185h1.216l-.6-1.045Z" transform="translate(-1208.386 497.87)" fill="#fff"/><path d="M1029.027-421.641h-1.99v-.66h-.444v.66H1024.8v-.89l.339-.115.058-.019.014,0c.009-.013.024-.034.043-.067l.7-1.174v-.941h.788l.1-.174.1.174h.387l1.254,2.132a.446.446,0,0,0,.033.049.557.557,0,0,1,.224.105l.189.15Z" transform="translate(-1208.386 497.87)" fill="rgba(0,0,0,0)"/><path d="M1030.575-422.141v-.032c.139-.043.218-.085.218-.271v-1.6c0-.185-.079-.232-.218-.271v-.036h1.188c1.2,0,1.65.552,1.65,1.1s-.446,1.105-1.65,1.105Zm.581-.257c0,.071.068.085.142.085h.464c.866,0,1.216-.467,1.216-.934s-.349-.927-1.216-.927h-.606Z" transform="translate(-1210.117 497.87)" fill="#fff"/><path d="M1031.762-421.641h-1.687v-.9l.218-.067v-1.266l-.218-.061v-.915h1.688c1.587,0,2.15.865,2.15,1.6S1033.35-421.641,1031.762-421.641Zm-.106-1.171h.106c.215,0,.716-.042.716-.434s-.5-.427-.716-.427h-.106Z" transform="translate(-1210.117 497.87)" fill="rgba(0,0,0,0)"/><path d="M1037.332-422.8H1035.9l-.21.36a.236.236,0,0,0-.04.107c0,.079.086.122.235.161v.032h-.794v-.032a.522.522,0,0,0,.385-.31l1.012-1.7a.346.346,0,0,0-.246-.128v-.036h.591l1.109,1.886a.5.5,0,0,0,.378.292v.032h-.99v-.032c.128-.039.3-.11.2-.278Zm-1.323-.185h1.216l-.6-1.045Z" transform="translate(-1211.598 497.87)" fill="#fff"/><path d="M1038.819-421.641h-1.99v-.66h-.444v.66h-1.794v-.89l.339-.115.058-.019.014,0a.8.8,0,0,0,.044-.068l.7-1.173v-.941h.789l.1-.174.1.174h.386l1.254,2.132a.438.438,0,0,0,.033.049.559.559,0,0,1,.224.105l.189.15Z" transform="translate(-1211.598 497.87)" fill="rgba(0,0,0,0)"/><path d="M1043.088-423.377h.887a.3.3,0,0,0,.3-.225h.032l-.05.628h-.036a.227.227,0,0,0-.246-.228h-.887v.785c0,.056.021.085.071.085h1.2a.505.505,0,0,0,.445-.314h.032l-.118.489h-2.232v-.032c.139-.043.218-.085.218-.271v-1.6c0-.185-.078-.232-.218-.271v-.036h2.182c.021-.011.014-.025.032-.036h.032l-.061.535h-.036a.33.33,0,0,0-.356-.321h-1.194Z" transform="translate(-1214.025 497.887)" fill="#fff"/><path d="M1044.567-424.9h.728l-.174,1.535h-.33l-.018.222h.7l-.358,1.489h-3.126v-.9l.218-.067v-1.266l-.218-.061v-.915h2.517Z" transform="translate(-1214.025 497.887)" fill="rgba(0,0,0,0)"/><path d="M1049.518-422.077h-.036l-2.278-1.939v1.6c0,.164.083.207.218.246v.032h-.652v-.032c.136-.036.218-.082.218-.246v-1.665c0-.15-.089-.193-.218-.232v-.036h.606l1.932,1.672v-1.394c0-.161-.089-.2-.221-.243v-.036h.649v.036c-.136.039-.218.082-.218.243Z" transform="translate(-1215.429 497.87)" fill="#fff"/><path d="M1050.018-421.577h-.719l-1.594-1.357v.322l.218.063v.908h-1.652v-.918l.218-.057v-1.263l-.218-.066v-.906h.435v-.247l.29.247h.568l1.025.887v-.887h1.649v.912l-.218.063Z" transform="translate(-1215.429 497.87)" fill="rgba(0,0,0,0)"/><path d="M1054.758-422.711V-424.6l-.367.185-.025-.029.738-.666h.043v2.4c0,.2.185.239.481.289v.032h-1.383v-.036C1054.547-422.468,1054.758-422.514,1054.758-422.711Z" transform="translate(-1217.881 498.118)" fill="#fff"/><path d="M1056.128-421.889h-2.383v-.969l.43-.061.083-.013v-.87l-.59-.684,1.244-1.122h.735v2.683l.064.011.417.07Z" transform="translate(-1217.881 498.118)" fill="rgba(0,0,0,0)"/><path d="M1057.322-425.035h1.561a.487.487,0,0,0,.292-.053h.036l-.064.574h-.036a.3.3,0,0,0-.332-.278h-1.3l-.1.781a4.31,4.31,0,0,1,.628-.046c.845,0,1.308.328,1.308.873,0,.7-.749.87-1.261.87a4.661,4.661,0,0,1-.937-.122.161.161,0,0,0-.1.043h-.04l.1-.77h.036c.06.4.267.667.891.667s.862-.257.862-.667c0-.442-.288-.67-.845-.67a4.978,4.978,0,0,0-.8.082h-.05Z" transform="translate(-1218.777 498.111)" fill="#fff"/><path d="M1058.991-425.588h.779l-.175,1.574h-.077a1.254,1.254,0,0,1,.3.829c0,.832-.691,1.37-1.761,1.37a4.722,4.722,0,0,1-.856-.094l-.022.016h-.769l.223-1.77h.019l.229-1.872h2.05ZM1058-423a.573.573,0,0,0,.341-.064.179.179,0,0,0,.021-.1c0-.091,0-.17-.345-.17a3.3,3.3,0,0,0-.424.03l.01.065C1057.627-423.077,1057.639-423,1058-423Z" transform="translate(-1218.777 498.111)" fill="rgba(0,0,0,0)"/><path d="M1061.958-422.482c.453,0,.834-.171.834-.638,0-.509-.581-.581-1.241-.581v-.161c.478,0,1.105-.11,1.105-.556,0-.4-.357-.535-.727-.535a.835.835,0,0,0-.806.481h-.036l-.086-.364a1.482,1.482,0,0,1,.927-.274c.46,0,1.169.121,1.169.692,0,.327-.339.527-.816.591.474.05.962.249.962.706,0,.649-.652.795-1.287.795a3.4,3.4,0,0,1-.987-.132v-.535H1061A.925.925,0,0,0,1061.958-422.482Z" transform="translate(-1220.087 498.118)" fill="#fff"/><path d="M1061.958-421.826a3.9,3.9,0,0,1-1.131-.153l-.357-.107v-1.407h.2l-2.611-.274,2.6-.347-.207-.874.192-.2a1.941,1.941,0,0,1,1.285-.425c1.029,0,1.669.457,1.669,1.192a.962.962,0,0,1-.172.541,1.031,1.031,0,0,1,.318.756C1063.745-422.731,1063.571-421.826,1061.958-421.826Zm-.5-1.376c.055.11.123.219.5.219a.575.575,0,0,0,.31-.06c.012-.008.024-.016.024-.073a1.788,1.788,0,0,0-.741-.086Zm.473-1.251a.456.456,0,0,0-.284.089,1.533,1.533,0,0,0,.451-.073A.764.764,0,0,0,1061.93-424.452Z" transform="translate(-1220.087 498.118)" fill="rgba(0,0,0,0)"/><path d="M1066.455-422.9h-1.644v-.068l1.964-2.043h.064v1.828h.382v.282h-.382v.228c0,.21.1.243.232.282v.032h-.841v-.04c.15-.039.225-.071.225-.274Zm0-1.529-1.18,1.247h1.18Z" transform="translate(-1221.347 498.085)" fill="#fff"/><path d="M1067.571-421.857h-1.841v-.542h-1.418v-.282h-.2l.2-.209v-.278l2.251-2.341h.227l.165-.175v.175h.385v1.828h.382v1.282h-.15Z" transform="translate(-1221.347 498.085)" fill="rgba(0,0,0,0)"/></g></svg>