<?xml version="1.0" standalone="no"?>
<!DOCTYPE svg PUBLIC "-//W3C//DTD SVG 20010904//EN"
 "http://www.w3.org/TR/2001/REC-SVG-20010904/DTD/svg10.dtd">
<svg version="1.0" xmlns="http://www.w3.org/2000/svg"
 width="512.000000pt" height="512.000000pt" viewBox="0 0 512.000000 512.000000"
 preserveAspectRatio="xMidYMid meet">
<metadata>
Created by potrace 1.14, written by Peter Selinger 2001-2017
</metadata>
<g transform="translate(0.000000,512.000000) scale(0.100000,-0.100000)"
fill="#000000" stroke="none">
<path d="M2493 5100 c-45 -27 -67 -66 -67 -115 3 -135 174 -178 244 -62 25 40
25 82 2 126 -35 65 -118 89 -179 51z"/>
<path d="M2142 4825 c-94 -54 -133 -138 -111 -243 9 -43 20 -64 57 -102 120
-123 321 -75 369 89 24 85 6 157 -58 220 -66 66 -177 82 -257 36z"/>
<path d="M2775 4831 c-142 -66 -171 -264 -54 -365 105 -90 268 -65 336 52 52
88 31 223 -44 282 -67 52 -164 65 -238 31z"/>
<path d="M1595 4792 c-115 -55 -139 -197 -50 -286 144 -144 374 36 274 214
-44 78 -144 110 -224 72z"/>
<path d="M3397 4802 c-40 -10 -97 -59 -113 -98 -36 -86 0 -190 80 -231 40 -21
123 -20 163 0 94 49 123 188 56 267 -45 54 -117 78 -186 62z"/>
<path d="M1668 4266 c-2 -17 -1 -42 2 -56 l5 -25 875 1 c481 1 880 2 886 3 7
1 11 21 10 54 l-1 52 -887 1 -886 1 -4 -31z"/>
<path d="M859 4069 c-12 -7 -7 -2546 5 -2599 4 -19 14 -69 22 -110 19 -95 82
-284 125 -375 135 -288 365 -550 629 -717 188 -119 429 -212 625 -243 22 -3
58 -9 80 -13 57 -9 347 -9 425 1 246 30 505 126 716 265 50 33 101 68 114 78
325 265 524 576 619 968 20 83 27 124 38 236 3 36 6 615 7 1288 l1 1222 -35 0
c-400 4 -3365 3 -3371 -1z m3287 -111 c6 -7 6 -2325 -1 -2395 -2 -29 -7 -65
-9 -80 -3 -16 -8 -44 -11 -63 -11 -69 -56 -223 -86 -298 -43 -109 -146 -299
-179 -332 -3 -3 -25 -32 -49 -65 -133 -179 -368 -364 -597 -470 -209 -97 -442
-144 -683 -140 -191 4 -307 24 -479 81 -401 133 -735 425 -925 809 -40 80 -94
215 -102 255 -2 8 -10 42 -18 75 -40 157 -40 174 -42 1417 -2 1078 0 1207 13
1210 28 5 3162 1 3168 -4z"/>
<path d="M2500 3820 l0 -81 -62 2 c-99 2 -94 5 -92 -48 1 -27 2 -51 3 -55 0
-5 35 -8 76 -8 l75 0 0 -108 0 -107 -27 -13 c-67 -30 -103 -83 -110 -160 -4
-46 -1 -66 16 -99 11 -23 25 -44 31 -48 19 -12 10 -21 -26 -23 -20 -2 -66 -9
-103 -18 -36 -8 -76 -17 -88 -19 -112 -25 -328 -131 -447 -218 -140 -104 -276
-249 -357 -382 -43 -71 -48 -80 -65 -117 -9 -21 -20 -38 -24 -38 -4 0 -8 304
-8 675 l0 675 261 0 c144 1 360 1 480 0 l217 0 1 27 c2 36 -2 77 -7 82 -3 3
-999 5 -1052 2 -10 -1 -12 -214 -11 -1068 0 -588 4 -1093 9 -1123 4 -30 11
-75 15 -99 3 -24 17 -81 31 -128 143 -494 545 -861 1064 -969 120 -25 437 -25
510 0 8 3 29 7 45 10 62 10 199 57 288 99 345 164 603 458 722 821 67 205 66
184 68 1379 2 951 0 1077 -13 1078 -18 0 -994 0 -1032 0 -26 -1 -27 -3 -26
-56 l1 -54 479 2 478 2 1 -30 c0 -40 0 -1316 0 -1335 -1 -8 -18 19 -39 60
-108 213 -274 398 -477 530 -157 102 -321 166 -525 205 -13 3 -39 6 -56 7
l-33 2 21 29 c71 99 45 233 -56 292 l-43 25 -1 105 -1 105 78 0 78 0 2 55 2
55 -53 1 c-29 1 -65 0 -79 -1 l-27 -1 1 78 0 78 -56 3 -57 3 0 -81z m193 -884
c139 -71 265 -248 350 -492 43 -124 74 -254 92 -384 3 -25 8 -56 10 -70 3 -14
7 -70 10 -126 l5 -101 -602 1 -603 1 1 66 c3 118 23 266 55 409 81 350 230
604 410 694 62 31 77 35 142 33 57 -2 84 -8 130 -31z m-499 -38 c-10 -13 -22
-25 -25 -28 -3 -3 -24 -32 -47 -65 -163 -241 -267 -617 -281 -1016 l-1 -26
-272 1 -273 1 1 25 c1 39 13 141 18 148 2 4 7 25 10 46 11 69 66 218 112 306
147 277 379 482 679 601 89 35 104 37 79 7z m820 -14 c174 -70 306 -156 435
-285 209 -209 351 -511 363 -774 l3 -60 -271 -1 -271 -1 -2 63 c-1 34 -4 73
-6 86 -2 12 -6 54 -10 91 -3 37 -8 76 -10 85 -1 9 -6 37 -10 62 -40 252 -160
556 -275 697 -71 88 -72 87 54 37z m-1174 -1379 c0 -80 4 -145 8 -145 23 0
102 33 103 43 0 7 1 64 2 127 l2 115 602 3 603 2 0 -130 0 -129 52 -16 c28 -8
53 -13 55 -11 2 2 4 67 4 145 l0 141 275 0 275 0 -6 -57 c-9 -88 -34 -209 -62
-293 -25 -76 -130 -290 -143 -290 -3 0 -7 56 -7 125 0 69 -2 127 -4 129 -2 2
-65 6 -139 9 -146 7 -198 17 -361 71 -220 72 -251 77 -519 81 -256 4 -345 -9
-556 -78 -182 -60 -264 -75 -426 -76 l-88 -1 0 -132 c0 -81 -4 -128 -9 -122
-19 19 -89 151 -116 219 -31 77 -61 179 -69 228 -7 47 -16 117 -21 155 l-4 32
275 0 274 0 0 -145z m960 -199 c13 -3 42 -8 65 -12 22 -3 99 -25 172 -49 178
-59 298 -84 406 -85 45 0 47 -1 47 -29 l0 -28 -932 1 -933 1 -3 25 c-3 23 1
26 35 28 148 8 233 26 394 80 97 33 216 61 319 75 39 6 402 0 430 -7z m690
-385 l0 -69 -69 -64 c-100 -95 -283 -220 -294 -201 -3 4 -4 64 -3 131 0 68 -2
129 -6 135 -5 9 -155 12 -568 12 l-560 0 0 -142 c0 -79 -3 -143 -8 -143 -4 0
-24 11 -44 25 -20 14 -40 25 -43 25 -16 0 -200 146 -245 195 -21 22 -25 37
-26 88 -1 34 0 65 3 70 2 4 422 7 934 7 l929 0 0 -69z m-1330 -291 c0 -123 -3
-130 -39 -110 -16 8 -19 23 -18 120 l0 110 28 0 29 0 0 -120z m170 -25 c0 -80
-2 -145 -4 -145 -3 0 -16 4 -29 9 -23 9 -24 11 -25 145 l-1 136 30 0 29 0 0
-145z m170 -9 c0 -153 0 -153 -22 -152 -13 0 -26 6 -29 11 -3 6 -6 74 -6 153
l-1 142 29 0 29 0 0 -154z m168 2 l-3 -151 -27 -1 -27 -2 1 153 1 153 29 0 29
0 -3 -152z m172 13 l0 -139 -29 -4 -28 -4 -1 135 c0 75 2 139 5 144 2 4 15 7
29 7 l24 0 0 -139z m170 24 c0 -93 -3 -115 -14 -115 -8 0 -22 -3 -30 -6 -15
-6 -16 7 -15 115 l2 121 28 0 29 0 0 -115z"/>
<path d="M1684 3393 c3 -34 5 -63 3 -63 -2 0 -20 23 -41 50 l-39 51 -38 -41
-39 -41 27 -23 c16 -12 39 -30 53 -40 25 -18 24 -18 -42 -12 l-68 6 0 -55 0
-56 53 6 c28 4 59 9 67 11 8 2 5 -4 -7 -15 -12 -10 -36 -31 -54 -45 l-31 -26
40 -41 39 -41 37 51 c21 28 39 51 41 51 3 0 2 -28 -2 -63 l-5 -62 55 0 c51 0
56 1 52 20 -9 44 -15 105 -11 105 2 0 22 -22 44 -49 l39 -50 39 40 c34 35 37
42 23 52 -8 7 -31 25 -50 40 l-34 29 62 -7 c59 -6 62 -5 65 17 2 13 1 38 -1
56 l-3 32 -62 -5 c-66 -7 -67 -9 4 47 l35 27 -39 40 -39 40 -40 -50 c-22 -27
-41 -48 -43 -46 -2 2 0 28 5 58 5 29 7 57 4 62 -2 4 -27 7 -55 6 l-50 -2 6
-64z"/>
<path d="M3334 3395 c3 -36 5 -65 3 -65 -2 0 -20 22 -40 49 l-38 49 -40 -36
-40 -37 53 -48 c29 -27 49 -47 43 -44 -5 3 -36 8 -67 11 l-58 7 0 -56 0 -56
58 7 c31 3 60 8 65 11 4 2 7 2 7 -1 0 -2 -23 -22 -50 -44 l-50 -40 36 -36 c20
-20 39 -36 43 -36 4 0 22 20 40 45 18 25 34 45 36 45 2 0 1 -29 -2 -64 l-5
-63 54 1 53 2 -3 45 c-2 24 -5 53 -8 64 -3 14 6 7 30 -20 20 -22 36 -43 36
-47 0 -19 29 -5 61 28 l34 35 -25 21 c-14 11 -38 30 -53 43 l-29 22 63 -9 c34
-4 63 -7 65 -6 4 5 6 33 5 71 l-1 38 -62 -6 c-53 -5 -60 -4 -47 7 8 7 30 26
49 41 l33 28 -38 39 -38 39 -39 -50 c-22 -27 -41 -49 -43 -49 -2 0 -1 12 1 28
2 15 5 43 7 63 l4 37 -55 1 -54 0 6 -64z"/>
</g>
</svg>
